700 0 2 0           
30 Autodesk Translation Framework 20 ASM 226.0.3.65535 NT 24 Thu Jan 27 10:20:49 2022 
1 9.999999999999999547e-07 1.000000000000000036e-10 
body $2 -1 $-1 $3 $-1 $4 #
body $5 -1 $-1 $6 $-1 $7 #
rgb_color-st-attrib $-1 -1 $8 $-1 $0 0.7490196078431372584 0.7490196078431372584 0.7490196078431372584 #
lump $-1 -1 $-1 $-1 $9 $0 #
transform $-1 -1 1 0 0 0 1 0 0 0 1 0 0 0 1 no_rotate no_reflect no_shear #
rgb_color-st-attrib $-1 -1 $10 $-1 $1 0.7490196078431372584 0.7490196078431372584 0.7490196078431372584 #
lump $-1 -1 $-1 $-1 $11 $1 #
transform $-1 -1 1 0 0 0 1 0 0 0 1 0 0 0 1 no_rotate no_reflect no_shear #
DXID-attrib $-1 -1 $-1 $2 $0 @10 ASM ENTITY @103 BASE_ROTATIVA.IPT|:|11A465BC4984B7D12E1233951E02AD3F81727C13|:|DA4B9237BACCCDF19C0760CAB7AEC4A8359010B0 #
shell $-1 -1 $-1 $-1 $-1 $12 $-1 $3 #
DXID-attrib $-1 -1 $-1 $5 $1 @10 ASM ENTITY @97 SOPORTE.IPT|:|3F4F2059DD00652E8C7E6478FC96906EBAD57826|:|DA4B9237BACCCDF19C0760CAB7AEC4A8359010B0 #
shell $-1 -1 $-1 $-1 $-1 $13 $-1 $6 #
face $14 -1 $-1 $15 $16 $9 $-1 $17 forward single #
face $18 -1 $-1 $19 $20 $11 $-1 $21 reversed single #
DXID-attrib $-1 -1 $-1 $-1 $12 @10 ASM ENTITY @36 677185b3-4664-4bb6-9ebc-a4dd92586805 #
face $22 -1 $-1 $23 $24 $9 $-1 $25 forward single #
loop $-1 -1 $-1 $26 $27 $12 #
cone-surface $-1 -1 $-1 576.8937226573633552 245.2356001399469676 1600.000000000004547 0 -1 4.427914669998710452e-33 -250.0000000000000284 0 6.606113754363491179e-14 1 I I 0 1 250.0000000000000284 forward I I I I #
DXID-attrib $-1 -1 $-1 $-1 $13 @10 ASM ENTITY @36 473fef7a-5906-4ef7-9c0a-e244b31ce912 #
face $28 -1 $-1 $29 $30 $11 $-1 $31 forward single #
loop $-1 -1 $-1 $32 $33 $13 #
cone-surface $-1 -1 $-1 576.8937226573634689 145.235600139946996 1600.000000000004547 0 -1 0 249.9999999999999716 0 0 1 I I 0 1 249.9999999999999716 forward I I I I #
DXID-attrib $-1 -1 $-1 $-1 $15 @10 ASM ENTITY @36 0256cb32-924c-4714-a626-e04bb4e9ec39 #
face $34 -1 $-1 $35 $36 $9 $-1 $37 forward single #
loop $-1 -1 $-1 $-1 $38 $15 #
plane-surface $-1 -1 $-1 576.8937226573633552 -254.7643998600530324 1600.000000000004547 1.964386723728471942e-17 -1 -7.628701918059665008e-34 2.642445501745395967e-15 4.427914669998710452e-32 10 forward_v I I I I #
loop $-1 -1 $-1 $-1 $39 $12 #
coedge $-1 -1 $-1 $27 $27 $38 $40 reversed $16 $-1 #
DXID-attrib $-1 -1 $-1 $-1 $19 @10 ASM ENTITY @36 121384c0-55e2-4c1a-8e93-49fdb6a3e337 #
face $41 -1 $-1 $42 $43 $11 $-1 $44 forward single #
loop $-1 -1 $-1 $-1 $45 $19 #
plane-surface $-1 -1 $-1 576.8937226573634689 -254.764399860053004 1600.000000000004547 0 1 0 0 0 10 forward_v I I I I #
loop $-1 -1 $-1 $-1 $46 $13 #
coedge $-1 -1 $-1 $33 $33 $45 $47 forward $20 $-1 #
DXID-attrib $-1 -1 $-1 $-1 $23 @10 ASM ENTITY @36 b426ba59-deee-49fc-9b42-95b4a24e5252 #
face $48 -1 $-1 $49 $50 $9 $-1 $37 forward single #
loop $-1 -1 $-1 $-1 $51 $23 #
plane-surface $-1 -1 $-1 526.8937226573634689 445.235600139946996 2100.000000000004547 1.421085471520200401e-16 -1 -3.312349444814418024e-32 10 1.421085471520200451e-15 -2.642445501745395967e-15 forward_v I I I I #
coedge $-1 -1 $-1 $38 $38 $27 $40 forward $24 $-1 #
coedge $-1 -1 $-1 $39 $39 $52 $53 reversed $26 $-1 #
edge $54 -1 $-1 $55 0 $55 6.283185307179586232 $27 $56 forward @7 unknown #
DXID-attrib $-1 -1 $-1 $-1 $29 @10 ASM ENTITY @36 515c4566-0a31-4524-aee4-37d41435119d #
face $57 -1 $-1 $58 $59 $11 $-1 $60 forward single #
loop $-1 -1 $-1 $-1 $61 $29 #
plane-surface $-1 -1 $-1 -123.1062773426364743 -454.764399860053004 2300.000000000004547 0 0 1 10 0 0 forward_v I I I I #
coedge $-1 -1 $-1 $45 $45 $33 $47 reversed $30 $-1 #
coedge $-1 -1 $-1 $46 $46 $62 $63 reversed $32 $-1 #
edge $64 -1 $-1 $65 -6.283185307179586232 $65 -0 $33 $66 forward @7 unknown #
DXID-attrib $-1 -1 $-1 $-1 $35 @10 ASM ENTITY @36 25bd91dd-8412-4815-9f33-21128a537096 #
face $67 -1 $-1 $68 $69 $9 $-1 $70 forward single #
loop $-1 -1 $-1 $-1 $71 $35 #
coedge $-1 -1 $-1 $72 $73 $74 $75 reversed $36 $-1 #
coedge $-1 -1 $-1 $52 $52 $39 $53 forward $76 $-1 #
edge $-1 -1 $-1 $77 0 $77 6.283185307179586232 $52 $78 forward @7 unknown #
DXID-attrib $-1 -1 $-1 $-1 $40 @10 ASM ENTITY @36 3fbde60f-4b3c-4bfc-bf08-7ef769d89d46 #
vertex $-1 -1 $-1 $40 $79 #
ellipse-curve $-1 -1 $-1 576.8937226573633552 -254.7643998600530324 1600.000000000004547 1.964386723728471942e-17 -1 -7.628701918059665008e-34 -250.0000000000000284 -4.910966809321182812e-15 6.606113754363491179e-14 1 I I #
DXID-attrib $-1 -1 $-1 $-1 $42 @10 ASM ENTITY @36 985a44e4-a4eb-4280-a9e4-d741fc9d8032 #
face $80 -1 $-1 $81 $82 $11 $-1 $83 forward single #
loop $-1 -1 $-1 $-1 $84 $42 #
plane-surface $-1 -1 $-1 -123.1062773426366448 -454.764399860053004 900.0000000000047748 -1 0 1.268826313857321937e-16 1.268826313857321986e-15 0 10 forward_v I I I I #
coedge $-1 -1 $-1 $85 $86 $87 $88 forward $43 $-1 #
coedge $-1 -1 $-1 $62 $62 $46 $63 forward $89 $-1 #
edge $-1 -1 $-1 $90 0 $90 6.283185307179586232 $62 $91 forward @7 unknown #
DXID-attrib $-1 -1 $-1 $-1 $47 @10 ASM ENTITY @36 8f5e580a-45ca-4236-ba58-bca4da5b86fa #
vertex $-1 -1 $-1 $47 $92 #
ellipse-curve $-1 -1 $-1 576.8937226573634689 -254.764399860053004 1600.000000000004547 0 -1 0 249.9999999999999716 0 0 1 I I #
DXID-attrib $-1 -1 $-1 $-1 $49 @10 ASM ENTITY @36 02e160cd-9061-44bc-8f20-ed1be6fd616f #
face $93 -1 $-1 $94 $95 $9 $-1 $96 forward single #
loop $-1 -1 $-1 $-1 $97 $49 #
plane-surface $-1 -1 $-1 576.8937226573634689 445.235600139946996 2100.000000000004547 1 1.421085471520200401e-16 -2.642445501745396164e-16 -1.421085471520200451e-15 10 3.312349444814417805e-31 forward_v I I I I #
coedge $-1 -1 $-1 $98 $99 $100 $101 reversed $50 $-1 #
coedge $-1 -1 $-1 $102 $51 $103 $104 reversed $36 $-1 #
coedge $-1 -1 $-1 $51 $102 $105 $106 reversed $36 $-1 #
coedge $-1 -1 $-1 $107 $108 $51 $75 forward $109 $-1 #
edge $-1 -1 $-1 $110 -1.249999999999996447 $111 3.750000000000003553 $74 $112 forward @7 unknown #
loop $-1 -1 $-1 $113 $52 $114 #
vertex $-1 -1 $-1 $53 $115 #
ellipse-curve $-1 -1 $-1 576.8937226573633552 245.2356001399469676 1600.000000000004547 -1.964386723728471942e-17 1 7.628701918059665008e-34 -250.0000000000000284 0 6.606113754363491179e-14 1 I I #
point $-1 -1 $-1 326.8937226573633552 -254.7643998600530324 1600.000000000004547 #
DXID-attrib $-1 -1 $-1 $-1 $58 @10 ASM ENTITY @36 3cef561e-598b-4da2-aac7-8a3a84f7a542 #
face $116 -1 $-1 $117 $118 $11 $-1 $119 forward single #
loop $-1 -1 $-1 $-1 $120 $58 #
plane-surface $-1 -1 $-1 1276.893722657363242 -454.764399860053004 900.0000000000045475 -2.030122102171714753e-16 0 -1 -10 0 2.030122102171714704e-15 forward_v I I I I #
coedge $-1 -1 $-1 $121 $122 $123 $124 forward $59 $-1 #
coedge $-1 -1 $-1 $125 $61 $126 $127 forward $43 $-1 #
coedge $-1 -1 $-1 $61 $125 $121 $128 reversed $43 $-1 #
coedge $-1 -1 $-1 $123 $129 $61 $88 reversed $130 $-1 #
edge $131 -1 $-1 $132 0 $133 139.9999999999999716 $61 $134 forward @7 unknown #
loop $-1 -1 $-1 $135 $62 $117 #
vertex $-1 -1 $-1 $63 $136 #
ellipse-curve $-1 -1 $-1 576.8937226573634689 145.235600139946996 1600.000000000004547 -0 -1 -0 249.9999999999999716 0 0 1 I I #
point $-1 -1 $-1 826.8937226573634689 -254.764399860053004 1600.000000000004547 #
DXID-attrib $-1 -1 $-1 $-1 $68 @10 ASM ENTITY @36 093a4893-8e53-48c7-91fd-2206714b7f42 #
face $137 -1 $-1 $138 $139 $9 $-1 $140 forward single #
loop $-1 -1 $-1 $-1 $141 $68 #
plane-surface $-1 -1 $-1 551.8937226573631278 645.235600139946996 900.0000000000045475 -2.642445501745396164e-16 -4.427914669998710452e-33 -1 -10 -1.421085471520200451e-15 2.642445501745395967e-15 forward_v I I I I #
coedge $-1 -1 $-1 $142 $143 $144 $145 reversed $69 $-1 #
coedge $-1 -1 $-1 $146 $71 $143 $147 reversed $50 $-1 #
coedge $-1 -1 $-1 $71 $146 $148 $149 reversed $50 $-1 #
coedge $-1 -1 $-1 $150 $144 $71 $101 forward $151 $-1 #
edge $-1 -1 $-1 $152 -3.750000000000003553 $153 1.249999999999996447 $100 $154 forward @7 unknown #
coedge $-1 -1 $-1 $73 $72 $155 $156 reversed $36 $-1 #
coedge $-1 -1 $-1 $157 $158 $72 $104 forward $139 $-1 #
edge $159 -1 $-1 $160 -120 $110 -100 $103 $161 forward @7 unknown #
coedge $-1 -1 $-1 $162 $163 $73 $106 forward $69 $-1 #
edge $164 -1 $-1 $111 100 $165 120 $105 $166 forward @7 unknown #
coedge $-1 -1 $-1 $167 $74 $163 $168 forward $109 $-1 #
coedge $-1 -1 $-1 $74 $169 $157 $170 forward $109 $-1 #
loop $-1 -1 $-1 $-1 $108 $171 #
vertex $-1 -1 $-1 $75 $172 #
vertex $-1 -1 $-1 $75 $173 #
straight-curve $-1 -1 $-1 539.3937226573632415 445.235600139946996 1100.000000000004547 10 1.421085471520200451e-15 -2.642445501745395967e-15 I I #
loop $-1 -1 $-1 $-1 $174 $114 #
face $175 -1 $-1 $176 $76 $9 $-1 $177 forward single #
point $-1 -1 $-1 326.8937226573633552 245.2356001399469676 1600.000000000004547 #
DXID-attrib $-1 -1 $-1 $-1 $81 @10 ASM ENTITY @36 572fcefc-9648-493a-ab2c-375a929b77b8 #
face $178 -1 $-1 $179 $89 $11 $-1 $180 forward single #
loop $-1 -1 $-1 $-1 $181 $81 #
plane-surface $-1 -1 $-1 1276.893722657363242 -454.764399860053004 2300.000000000004547 1 0 0 0 0 -10 forward_v I I I I #
coedge $-1 -1 $-1 $182 $183 $184 $185 forward $82 $-1 #
coedge $-1 -1 $-1 $186 $84 $86 $128 forward $59 $-1 #
coedge $-1 -1 $-1 $84 $186 $182 $187 reversed $59 $-1 #
coedge $-1 -1 $-1 $184 $87 $84 $124 reversed $130 $-1 #
edge $188 -1 $-1 $189 0 $132 139.9999999999999716 $84 $190 forward @7 unknown #
coedge $-1 -1 $-1 $86 $85 $191 $192 reversed $43 $-1 #
coedge $-1 -1 $-1 $181 $193 $85 $127 reversed $118 $-1 #
edge $194 -1 $-1 $133 0 $195 60 $126 $196 forward @7 unknown #
edge $197 -1 $-1 $132 0 $198 60 $121 $199 forward @7 unknown #
coedge $-1 -1 $-1 $87 $184 $181 $200 reversed $130 $-1 #
loop $-1 -1 $-1 $-1 $129 $179 #
DXID-attrib $-1 -1 $-1 $-1 $88 @10 ASM ENTITY @36 3473a36a-8275-4173-bd8b-c17e26573f0d #
vertex $-1 -1 $-1 $88 $201 #
vertex $-1 -1 $-1 $88 $202 #
straight-curve $-1 -1 $-1 -123.1062773426364743 -454.764399860053004 2300.000000000004547 10 0 0 F 0 F 139.9999999999999716 #
loop $-1 -1 $-1 $-1 $203 $117 #
point $-1 -1 $-1 826.8937226573634689 145.235600139946996 1600.000000000004547 #
DXID-attrib $-1 -1 $-1 $-1 $94 @10 ASM ENTITY @36 29dba062-6fec-4d8f-a8d8-1c885813981f #
face $204 -1 $-1 $205 $206 $9 $-1 $207 forward single #
loop $-1 -1 $-1 $-1 $208 $94 #
plane-surface $-1 -1 $-1 526.8937226573634689 845.235600139946996 2100.000000000004547 -1 -1.421085471520200401e-16 2.642445501745396164e-16 1.421085471520200451e-15 -10 -3.312349444814417805e-31 forward_v I I I I #
coedge $-1 -1 $-1 $155 $209 $162 $210 forward $95 $-1 #
coedge $-1 -1 $-1 $163 $97 $211 $212 reversed $69 $-1 #
coedge $-1 -1 $-1 $97 $213 $98 $147 forward $69 $-1 #
coedge $-1 -1 $-1 $100 $214 $97 $145 forward $151 $-1 #
edge $-1 -1 $-1 $215 -11.00000000000000355 $152 -2.500000000000003553 $144 $216 forward @7 unknown #
coedge $-1 -1 $-1 $99 $98 $217 $218 reversed $50 $-1 #
edge $219 -1 $-1 $220 -20 $152 0 $143 $166 forward @7 unknown #
coedge $-1 -1 $-1 $221 $208 $99 $149 forward $139 $-1 #
edge $222 -1 $-1 $153 0 $223 20 $148 $161 forward @7 unknown #
coedge $-1 -1 $-1 $224 $100 $208 $225 forward $151 $-1 #
loop $-1 -1 $-1 $-1 $150 $176 #
vertex $-1 -1 $-1 $101 $226 #
vertex $-1 -1 $-1 $101 $227 #
straight-curve $-1 -1 $-1 539.3937226573634689 445.235600139946996 2100.000000000004547 -10 -1.421085471520200451e-15 2.642445501745395967e-15 I I #
coedge $-1 -1 $-1 $228 $141 $102 $156 forward $95 $-1 #
edge $229 -1 $-1 $165 -5 $160 0 $102 $230 forward @7 unknown #
coedge $-1 -1 $-1 $231 $103 $108 $170 reversed $139 $-1 #
coedge $-1 -1 $-1 $103 $232 $228 $233 reversed $139 $-1 #
DXID-attrib $-1 -1 $-1 $-1 $104 @10 ASM ENTITY @36 2716358d-9016-4548-acb8-517dcc91c1c7 #
vertex $-1 -1 $-1 $104 $234 #
straight-curve $-1 -1 $-1 526.8937226573634689 445.235600139946996 2100.000000000004547 2.642445501745395967e-15 4.427914669998710452e-32 10 I I #
coedge $-1 -1 $-1 $235 $105 $141 $210 reversed $69 $-1 #
coedge $-1 -1 $-1 $105 $142 $107 $168 reversed $69 $-1 #
DXID-attrib $-1 -1 $-1 $-1 $106 @10 ASM ENTITY @36 699c7b3c-69b4-4669-9f07-d757d14bcc3f #
vertex $-1 -1 $-1 $156 $236 #
straight-curve $-1 -1 $-1 576.8937226573634689 445.235600139946996 2100.000000000004547 -2.642445501745395967e-15 -4.427914669998710452e-32 -10 I I #
coedge $-1 -1 $-1 $237 $107 $238 $239 forward $109 $-1 #
edge $-1 -1 $-1 $111 2.500000000000003553 $240 11.00000000000000355 $107 $241 forward @7 unknown #
coedge $-1 -1 $-1 $108 $242 $243 $244 forward $109 $-1 #
edge $-1 -1 $-1 $245 9 $110 17.5 $108 $246 forward @7 unknown #
face $247 -1 $-1 $248 $109 $9 $-1 $249 forward single #
point $-1 -1 $-1 526.8937226573632415 445.235600139946996 1100.000000000004547 #
point $-1 -1 $-1 576.8937226573632415 445.235600139946996 1100.000000000004547 #
coedge $-1 -1 $-1 $250 $251 $252 $253 forward $113 $-1 #
DXID-attrib $-1 -1 $-1 $-1 $114 @10 ASM ENTITY @36 20f3a055-878b-4606-8e71-6592f060fbd6 #
face $254 -1 $-1 $-1 $151 $9 $-1 $255 reversed single #
plane-surface $-1 -1 $-1 1051.893722657363469 245.2356001399469676 2100.000000000004547 1.964386723728471942e-17 -1 -7.628701918059665008e-34 -10 -1.964386723728471942e-16 2.642445501745395967e-15 forward_v I I I I #
DXID-attrib $-1 -1 $-1 $-1 $117 @10 ASM ENTITY @36 284862a3-30cf-4c06-8a2d-d6a887998d67 #
face $256 -1 $-1 $-1 $130 $11 $-1 $257 reversed single #
plane-surface $-1 -1 $-1 576.8937226573632415 145.235600139946996 1600.000000000004547 0 1 0 0 0 10 forward_v I I I I #
coedge $-1 -1 $-1 $258 $126 $129 $200 forward $118 $-1 #
coedge $-1 -1 $-1 $259 $120 $122 $187 forward $82 $-1 #
coedge $-1 -1 $-1 $120 $259 $258 $260 reversed $82 $-1 #
coedge $-1 -1 $-1 $129 $123 $120 $185 reversed $130 $-1 #
edge $261 -1 $-1 $262 0 $189 140 $120 $263 forward @7 unknown #
coedge $-1 -1 $-1 $122 $121 $264 $265 reversed $59 $-1 #
edge $266 -1 $-1 $189 0 $267 60 $182 $268 forward @7 unknown #
DXID-attrib $-1 -1 $-1 $-1 $124 @10 ASM ENTITY @36 eec0ffbe-41f1-4c0f-8f20-1fd1978fd2a6 #
vertex $-1 -1 $-1 $124 $269 #
straight-curve $-1 -1 $-1 -123.1062773426366448 -454.764399860053004 900.0000000000047748 1.268826313857321986e-15 0 10 F 0 F 139.9999999999999716 #
coedge $-1 -1 $-1 $203 $264 $125 $192 forward $135 $-1 #
edge $270 -1 $-1 $198 0 $195 139.9999999999999716 $125 $271 forward @7 unknown #
coedge $-1 -1 $-1 $126 $258 $203 $272 reversed $118 $-1 #
DXID-attrib $-1 -1 $-1 $-1 $127 @10 ASM ENTITY @36 4e0c4761-5721-46d8-b353-8fb457cbeca3 #
vertex $-1 -1 $-1 $127 $273 #
straight-curve $-1 -1 $-1 1276.893722657363242 -454.764399860053004 2300.000000000004547 0 10 0 I I #
DXID-attrib $-1 -1 $-1 $-1 $128 @10 ASM ENTITY @36 920441fc-0d52-446d-bcd9-d059bca69665 #
vertex $-1 -1 $-1 $192 $274 #
straight-curve $-1 -1 $-1 -123.1062773426364743 -454.764399860053004 2300.000000000004547 0 10 0 I I #
edge $275 -1 $-1 $133 0 $262 140 $181 $276 forward @7 unknown #
point $-1 -1 $-1 -123.1062773426364743 -454.764399860053004 2300.000000000004547 #
point $-1 -1 $-1 1276.893722657363242 -454.764399860053004 2300.000000000004547 #
coedge $-1 -1 $-1 $277 $191 $193 $272 forward $135 $-1 #
DXID-attrib $-1 -1 $-1 $-1 $138 @10 ASM ENTITY @36 c2450a79-f117-4f05-b8b2-b36df01812c8 #
face $278 -1 $-1 $279 $280 $9 $-1 $281 forward single #
loop $-1 -1 $-1 $-1 $282 $138 #
plane-surface $-1 -1 $-1 576.8937226573634689 845.235600139946996 2100.000000000004547 -1.421085471520200401e-16 1 3.312349444814418024e-32 -10 -1.421085471520200451e-15 2.642445501745395967e-15 forward_v I I I I #
coedge $-1 -1 $-1 $148 $231 $150 $225 reversed $139 $-1 #
coedge $-1 -1 $-1 $141 $228 $283 $284 forward $95 $-1 #
edge $285 -1 $-1 $286 -40 $165 -0 $162 $287 forward @7 unknown #
coedge $-1 -1 $-1 $288 $238 $142 $212 forward $289 $-1 #
edge $-1 -1 $-1 $240 -100 $215 0 $211 $290 forward @7 unknown #
coedge $-1 -1 $-1 $143 $235 $291 $292 reversed $69 $-1 #
coedge $-1 -1 $-1 $144 $293 $288 $294 reversed $151 $-1 #
vertex $-1 -1 $-1 $145 $295 #
straight-curve $-1 -1 $-1 576.8937226573634689 420.2356001399469392 2100.000000000004547 1.421085471520200451e-15 -10 -3.312349444814417805e-31 I I #
coedge $-1 -1 $-1 $291 $296 $146 $218 forward $280 $-1 #
edge $297 -1 $-1 $223 -0 $220 5 $146 $298 forward @7 unknown #
DXID-attrib $-1 -1 $-1 $-1 $147 @10 ASM ENTITY @36 0013b76b-ee49-49b6-bc04-9aa6ffec37ea #
vertex $-1 -1 $-1 $147 $299 #
coedge $-1 -1 $-1 $232 $148 $296 $300 reversed $139 $-1 #
DXID-attrib $-1 -1 $-1 $-1 $149 @10 ASM ENTITY @36 4cf58ae0-b7d9-426f-bff8-fd7bf2665a47 #
vertex $-1 -1 $-1 $218 $301 #
coedge $-1 -1 $-1 $302 $150 $303 $304 reversed $151 $-1 #
edge $-1 -1 $-1 $153 -17.5 $305 -9 $150 $306 forward @7 unknown #
point $-1 -1 $-1 576.8937226573634689 445.235600139946996 2100.000000000004547 #
point $-1 -1 $-1 526.8937226573634689 445.235600139946996 2100.000000000004547 #
coedge $-1 -1 $-1 $209 $155 $158 $233 forward $95 $-1 #
DXID-attrib $-1 -1 $-1 $-1 $156 @10 ASM ENTITY @36 c55b8638-2f98-4f9e-8631-4b4122de7c81 #
straight-curve $-1 -1 $-1 526.8937226573632415 445.235600139946996 900.0000000000045475 -10 -1.421085471520200451e-15 2.642445501745395967e-15 I I #
coedge $-1 -1 $-1 $208 $157 $307 $308 reversed $139 $-1 #
coedge $-1 -1 $-1 $158 $221 $282 $309 reversed $139 $-1 #
edge $310 -1 $-1 $160 -40 $311 0 $158 $312 forward @7 unknown #
point $-1 -1 $-1 526.8937226573632415 445.235600139946996 900.0000000000045475 #
coedge $-1 -1 $-1 $213 $162 $313 $314 forward $69 $-1 #
point $-1 -1 $-1 576.8937226573632415 445.235600139946996 900.0000000000045475 #
coedge $-1 -1 $-1 $315 $167 $316 $317 forward $109 $-1 #
coedge $-1 -1 $-1 $211 $318 $167 $239 reversed $289 $-1 #
edge $319 -1 $-1 $240 2.915475947422649927 $320 34.9857113690717938 $238 $321 forward @7 unknown #
vertex $-1 -1 $-1 $212 $322 #
straight-curve $-1 -1 $-1 576.8937226573632415 420.2356001399469392 1100.000000000004547 -1.421085471520200451e-15 10 3.312349444814417805e-31 I I #
coedge $-1 -1 $-1 $169 $315 $323 $324 forward $109 $-1 #
coedge $-1 -1 $-1 $325 $307 $169 $244 reversed $326 $-1 #
edge $327 -1 $-1 $328 23.32380757938120297 $245 55.39404300103036149 $243 $329 forward @7 unknown #
vertex $-1 -1 $-1 $170 $330 #
straight-curve $-1 -1 $-1 526.8937226573632415 620.235600139946996 1100.000000000004547 1.421085471520200451e-15 -10 -3.312349444814417805e-31 I I #
DXID-attrib $-1 -1 $-1 $-1 $171 @10 ASM ENTITY @36 f53fce90-5720-498f-960b-4bc7f55e47b2 #
face $331 -1 $-1 $332 $333 $9 $-1 $334 forward single #
plane-surface $-1 -1 $-1 551.8937226573631278 395.2356001399468823 1100.000000000004547 -2.642445501745396164e-16 -4.427914669998710452e-33 -1 -10 -1.421085471520200451e-15 2.642445501745395967e-15 forward_v I I I I #
coedge $-1 -1 $-1 $335 $174 $336 $337 forward $113 $-1 #
coedge $-1 -1 $-1 $174 $338 $339 $340 forward $113 $-1 #
coedge $-1 -1 $-1 $341 $342 $174 $253 reversed $333 $-1 #
edge $-1 -1 $-1 $343 -3.887301263230199311 $344 -0 $174 $345 forward @7 unknown #
DXID-attrib $-1 -1 $-1 $-1 $176 @10 ASM ENTITY @36 756b7aff-2871-42d8-9a97-c82fbb281036 #
plane-surface $-1 -1 $-1 551.8937226573634689 395.2356001399468823 2100.000000000004547 -2.642445501745396164e-16 -4.427914669998710452e-33 -1 -10 -1.421085471520200451e-15 2.642445501745395967e-15 forward_v I I I I #
DXID-attrib $-1 -1 $-1 $-1 $179 @10 ASM ENTITY @36 ae6a8a14-6316-4c97-8323-59501e623cba #
plane-surface $-1 -1 $-1 576.8937226573632415 -454.764399860053004 1600.000000000004547 0 1 0 0 0 10 forward_v I I I I #
coedge $-1 -1 $-1 $193 $181 $183 $260 forward $118 $-1 #
coedge $-1 -1 $-1 $183 $182 $277 $346 reversed $82 $-1 #
edge $347 -1 $-1 $262 0 $348 60 $258 $349 forward @7 unknown #
DXID-attrib $-1 -1 $-1 $-1 $185 @10 ASM ENTITY @36 06532683-e6cd-4a2c-b22a-1e659f51e5fe #
vertex $-1 -1 $-1 $185 $350 #
straight-curve $-1 -1 $-1 1276.893722657363242 -454.764399860053004 900.0000000000045475 -10 0 2.030122102171714704e-15 F 0 F 140 #
coedge $-1 -1 $-1 $191 $277 $186 $265 forward $135 $-1 #
edge $351 -1 $-1 $267 0 $198 139.9999999999999716 $186 $352 forward @7 unknown #
DXID-attrib $-1 -1 $-1 $-1 $187 @10 ASM ENTITY @36 eebe29c6-9a73-4190-a61a-7483a987606d #
vertex $-1 -1 $-1 $265 $353 #
straight-curve $-1 -1 $-1 -123.1062773426366448 -454.764399860053004 900.0000000000047748 0 10 0 I I #
point $-1 -1 $-1 -123.1062773426366448 -454.764399860053004 900.0000000000047748 #
DXID-attrib $-1 -1 $-1 $-1 $192 @10 ASM ENTITY @36 0ac0883b-de78-45c4-8947-39f8e5fe4331 #
straight-curve $-1 -1 $-1 -123.1062773426364743 145.235600139946996 2300.000000000004547 10 0 0 I I #
edge $354 -1 $-1 $195 0 $348 140 $193 $355 forward @7 unknown #
point $-1 -1 $-1 1276.893722657363242 145.235600139946996 2300.000000000004547 #
point $-1 -1 $-1 -123.1062773426364743 145.235600139946996 2300.000000000004547 #
DXID-attrib $-1 -1 $-1 $-1 $200 @10 ASM ENTITY @36 f8405194-00b0-4cc1-94bb-edf8e3e624ec #
straight-curve $-1 -1 $-1 1276.893722657363242 -454.764399860053004 2300.000000000004547 0 0 -10 F 0 F 140 #
coedge $-1 -1 $-1 $264 $203 $259 $346 forward $135 $-1 #
DXID-attrib $-1 -1 $-1 $-1 $205 @10 ASM ENTITY @36 4e1d7218-7fd2-4b5c-810a-6db8aca54dcc #
face $356 -1 $-1 $171 $326 $9 $-1 $357 forward single #
loop $-1 -1 $-1 $-1 $291 $205 #
plane-surface $-1 -1 $-1 551.8937226573635826 645.235600139946996 2300.000000000004547 2.642445501745396164e-16 4.427914669998710452e-33 1 10 1.421085471520200451e-15 -2.642445501745395967e-15 forward_v I I I I #
coedge $-1 -1 $-1 $358 $283 $232 $309 forward $206 $-1 #
coedge $-1 -1 $-1 $282 $313 $209 $284 reversed $206 $-1 #
edge $359 -1 $-1 $311 -5 $286 -0 $283 $360 forward @7 unknown #
DXID-attrib $-1 -1 $-1 $-1 $210 @10 ASM ENTITY @36 28646045-042f-459b-a50d-adb4e7f6a0af #
vertex $-1 -1 $-1 $210 $361 #
straight-curve $-1 -1 $-1 576.8937226573632415 445.235600139946996 900.0000000000045475 1.421085471520200451e-15 -10 -3.312349444814417805e-31 I I #
coedge $-1 -1 $-1 $362 $211 $214 $294 forward $289 $-1 #
loop $-1 -1 $-1 $-1 $211 $363 #
straight-curve $-1 -1 $-1 576.8937226573634689 530.235600139946996 2100.000000000004547 2.642445501745395967e-15 4.427914669998710452e-32 10 I I #
coedge $-1 -1 $-1 $364 $217 $213 $292 forward $280 $-1 #
edge $365 -1 $-1 $220 0 $366 40 $213 $367 forward @7 unknown #
coedge $-1 -1 $-1 $214 $368 $369 $370 forward $151 $-1 #
edge $371 -1 $-1 $215 2.915475947422649927 $372 34.9857113690718009 $288 $373 forward @7 unknown #
point $-1 -1 $-1 576.8937226573634689 530.235600139946996 2100.000000000004547 #
coedge $-1 -1 $-1 $217 $364 $221 $300 forward $280 $-1 #
DXID-attrib $-1 -1 $-1 $-1 $218 @10 ASM ENTITY @36 403206b9-3027-4c84-888e-82ce00e054e8 #
straight-curve $-1 -1 $-1 526.8937226573635826 445.235600139946996 2300.000000000004547 10 1.421085471520200451e-15 -2.642445501745395967e-15 I I #
point $-1 -1 $-1 576.8937226573635826 445.235600139946996 2300.000000000004547 #
edge $374 -1 $-1 $375 -0 $223 40 $221 $376 forward @7 unknown #
point $-1 -1 $-1 526.8937226573635826 445.235600139946996 2300.000000000004547 #
coedge $-1 -1 $-1 $368 $224 $377 $378 forward $151 $-1 #
coedge $-1 -1 $-1 $307 $379 $224 $304 forward $326 $-1 #
edge $380 -1 $-1 $381 23.32380757938119942 $305 55.39404300103036149 $303 $382 forward @7 unknown #
vertex $-1 -1 $-1 $225 $383 #
straight-curve $-1 -1 $-1 526.8937226573634689 620.235600139946996 2100.000000000004547 -1.421085471520200451e-15 10 3.312349444814417805e-31 I I #
coedge $-1 -1 $-1 $243 $303 $231 $308 forward $326 $-1 #
edge $-1 -1 $-1 $305 0 $245 100 $307 $384 forward @7 unknown #
edge $385 -1 $-1 $311 -120 $375 20 $282 $386 forward @7 unknown #
DXID-attrib $-1 -1 $-1 $-1 $233 @10 ASM ENTITY @36 3b380049-554b-40ae-8b02-83d1f081bff4 #
vertex $-1 -1 $-1 $233 $387 #
straight-curve $-1 -1 $-1 526.8937226573631278 845.235600139946996 900.0000000000045475 -1.421085471520200451e-15 10 3.312349444814417805e-31 I I #
coedge $-1 -1 $-1 $283 $358 $235 $314 reversed $206 $-1 #
edge $388 -1 $-1 $286 -120 $366 20 $235 $389 forward @7 unknown #
coedge $-1 -1 $-1 $242 $237 $390 $391 forward $109 $-1 #
coedge $-1 -1 $-1 $392 $393 $237 $317 reversed $394 $-1 #
edge $-1 -1 $-1 $320 -4.500000000000004441 $395 7.499999999999997335 $237 $396 forward @7 unknown #
coedge $-1 -1 $-1 $238 $397 $392 $398 forward $289 $-1 #
DXID-attrib $-1 -1 $-1 $-1 $239 @10 ASM ENTITY @36 7fdee984-9263-4fc3-b5bc-d9964c8524b5 #
vertex $-1 -1 $-1 $239 $399 #
straight-curve $-1 -1 $-1 551.8937226573632415 545.235600139946996 1100.000000000004547 8.57492925712544185 -5.144957554275265466 -2.265878324327611209e-15 I I #
point $-1 -1 $-1 576.8937226573632415 530.235600139946996 1100.000000000004547 #
coedge $-1 -1 $-1 $400 $401 $242 $324 reversed $402 $-1 #
edge $-1 -1 $-1 $403 -7.499999999999997335 $328 4.499999999999999112 $242 $404 forward @7 unknown #
coedge $-1 -1 $-1 $405 $243 $401 $406 forward $326 $-1 #
loop $-1 -1 $-1 $-1 $307 $279 #
DXID-attrib $-1 -1 $-1 $-1 $244 @10 ASM ENTITY @36 2ba05026-8b13-452e-b7f9-9787e35b7cf6 #
vertex $-1 -1 $-1 $244 $407 #
straight-curve $-1 -1 $-1 51.89372265736318468 245.2356001399469108 1100.000000000004547 8.574929257125440074 5.144957554275265466 -2.265878324327610815e-15 I I #
point $-1 -1 $-1 526.8937226573632415 530.235600139946996 1100.000000000004547 #
DXID-attrib $-1 -1 $-1 $-1 $248 @10 ASM ENTITY @36 f4ff64f0-c2e8-498c-92ac-65fce4bb095b #
face $408 -1 $-1 $409 $410 $9 $-1 $411 reversed single #
loop $-1 -1 $-1 $-1 $252 $248 #
plane-surface $-1 -1 $-1 1051.893722657363469 245.2356001399468823 1900.00000000000432 2.525201622227902641e-16 7.034632771049610129e-18 1 -8.574929257125443627 5.144957554275265466 2.129149640041302747e-15 forward_v I I I I #
coedge $-1 -1 $-1 $412 $250 $368 $413 forward $113 $-1 #
coedge $-1 -1 $-1 $414 $369 $250 $337 reversed $415 $-1 #
edge $-1 -1 $-1 $344 -7.071067811865473729 $416 21.21320343559643007 $250 $417 forward @7 unknown #
coedge $-1 -1 $-1 $251 $418 $419 $420 forward $113 $-1 #
coedge $-1 -1 $-1 $421 $422 $251 $340 reversed $410 $-1 #
edge $-1 -1 $-1 $423 -54.99999999999998579 $343 5 $251 $424 forward @7 unknown #
coedge $-1 -1 $-1 $342 $252 $422 $425 reversed $333 $-1 #
coedge $-1 -1 $-1 $252 $341 $426 $427 reversed $333 $-1 #
vertex $-1 -1 $-1 $253 $428 #
vertex $-1 -1 $-1 $253 $429 #
straight-curve $-1 -1 $-1 1051.893722657363469 245.2356001399469676 1900.00000000000432 10 1.964386723728471942e-16 -2.52520162222790274e-15 I I #
edge $430 -1 $-1 $348 0 $267 140 $259 $431 forward @7 unknown #
DXID-attrib $-1 -1 $-1 $-1 $260 @10 ASM ENTITY @36 f209f7d0-b684-4f06-830b-a691e283d8fe #
vertex $-1 -1 $-1 $346 $432 #
straight-curve $-1 -1 $-1 1276.893722657363242 -454.764399860053004 900.0000000000045475 0 10 0 I I #
point $-1 -1 $-1 1276.893722657363242 -454.764399860053004 900.0000000000045475 #
DXID-attrib $-1 -1 $-1 $-1 $265 @10 ASM ENTITY @36 a68ed08f-3091-416f-a486-f8d7f0b63fa6 #
straight-curve $-1 -1 $-1 -123.1062773426366448 145.235600139946996 900.0000000000047748 1.268826313857321986e-15 0 10 I I #
point $-1 -1 $-1 -123.1062773426367585 145.235600139946996 900.0000000000047748 #
DXID-attrib $-1 -1 $-1 $-1 $272 @10 ASM ENTITY @36 19754f38-bdc5-49a8-858f-d38abfa5b6d4 #
straight-curve $-1 -1 $-1 1276.893722657363242 145.235600139946996 2300.000000000004547 0 0 -10 I I #
DXID-attrib $-1 -1 $-1 $-1 $279 @10 ASM ENTITY @36 cccdf62b-eb3c-4cf9-af0a-48cefc0d0ebe #
plane-surface $-1 -1 $-1 51.8937226573634689 245.2356001399469108 2100.000000000004547 -0.5144957554275265688 0.8574929257125440962 1.35952699459656709e-16 8.574929257125440074 5.144957554275265466 -2.265878324327611209e-15 forward_v I I I I #
coedge $-1 -1 $-1 $313 $282 $364 $433 reversed $206 $-1 #
DXID-attrib $-1 -1 $-1 $-1 $284 @10 ASM ENTITY @36 85449a98-5303-4ea1-b9a1-6970b17421cf #
straight-curve $-1 -1 $-1 576.8937226573631278 845.235600139946996 900.0000000000045475 10 1.421085471520200451e-15 -2.642445501745395967e-15 I I #
point $-1 -1 $-1 576.8937226573631278 845.235600139946996 900.0000000000045475 #
coedge $-1 -1 $-1 $397 $288 $414 $434 forward $289 $-1 #
face $435 -1 $-1 $436 $289 $9 $-1 $437 forward single #
coedge $-1 -1 $-1 $296 $291 $358 $433 forward $280 $-1 #
DXID-attrib $-1 -1 $-1 $-1 $292 @10 ASM ENTITY @36 9b3d1f25-9a9e-4f89-953b-4fd1bf8dc447 #
vertex $-1 -1 $-1 $314 $438 #
straight-curve $-1 -1 $-1 576.8937226573635826 445.235600139946996 2300.000000000004547 -1.421085471520200451e-15 10 3.312349444814417805e-31 I I #
coedge $-1 -1 $-1 $293 $302 $335 $413 reversed $151 $-1 #
coedge $-1 -1 $-1 $336 $414 $293 $370 reversed $415 $-1 #
edge $-1 -1 $-1 $416 -7.499999999999997335 $372 4.500000000000002665 $293 $439 forward @7 unknown #
DXID-attrib $-1 -1 $-1 $-1 $294 @10 ASM ENTITY @36 389fceb8-bb88-4f2d-8a43-64437259f070 #
vertex $-1 -1 $-1 $294 $440 #
straight-curve $-1 -1 $-1 551.8937226573634689 545.235600139946996 2100.000000000004547 8.57492925712544185 -5.144957554275265466 -2.265878324327611209e-15 F -1.367286842863087583e-15 F 58.30951894845300387 #
DXID-attrib $-1 -1 $-1 $-1 $300 @10 ASM ENTITY @36 c05e746d-4002-45c2-9683-09f4395c3fac #
vertex $-1 -1 $-1 $300 $441 #
straight-curve $-1 -1 $-1 526.8937226573634689 845.235600139946996 2300.000000000004547 1.421085471520200451e-15 -10 -3.312349444814417805e-31 I I #
coedge $-1 -1 $-1 $442 $443 $302 $378 reversed $444 $-1 #
edge $-1 -1 $-1 $381 -4.499999999999997335 $445 7.499999999999997335 $302 $446 forward @7 unknown #
coedge $-1 -1 $-1 $303 $405 $442 $447 forward $326 $-1 #
DXID-attrib $-1 -1 $-1 $-1 $304 @10 ASM ENTITY @36 c93133bd-a687-468b-b4ee-01c83b6ef8fa #
vertex $-1 -1 $-1 $447 $448 #
straight-curve $-1 -1 $-1 51.8937226573634689 245.2356001399469108 2100.000000000004547 8.574929257125440074 5.144957554275265466 -2.265878324327610815e-15 F 0 F 58.30951894845300387 #
point $-1 -1 $-1 526.8937226573634689 530.235600139946996 2100.000000000004547 #
straight-curve $-1 -1 $-1 526.8937226573634689 530.235600139946996 2100.000000000004547 -2.642445501745395967e-15 -4.427914669998710452e-32 -10 I I #
DXID-attrib $-1 -1 $-1 $-1 $309 @10 ASM ENTITY @36 86ffa250-35e9-4f3e-b4cc-f403b686c233 #
straight-curve $-1 -1 $-1 526.8937226573634689 845.235600139946996 2100.000000000004547 2.642445501745395967e-15 4.427914669998710452e-32 10 I I #
point $-1 -1 $-1 526.8937226573631278 845.235600139946996 900.0000000000045475 #
DXID-attrib $-1 -1 $-1 $-1 $314 @10 ASM ENTITY @36 a9e6db7c-7f29-4d2a-aa06-91d82592a337 #
straight-curve $-1 -1 $-1 576.8937226573634689 845.235600139946996 2100.000000000004547 2.642445501745395967e-15 4.427914669998710452e-32 10 I I #
coedge $-1 -1 $-1 $418 $449 $315 $391 reversed $113 $-1 #
edge $450 -1 $-1 $395 20 $403 80 $390 $451 forward @7 unknown #
coedge $-1 -1 $-1 $393 $316 $318 $398 reversed $394 $-1 #
coedge $-1 -1 $-1 $316 $392 $418 $452 reversed $394 $-1 #
loop $-1 -1 $-1 $-1 $392 $453 #
vertex $-1 -1 $-1 $317 $454 #
straight-curve $-1 -1 $-1 851.8937226573632415 320.2356001399469392 1100.000000000004547 3.55271367880050162e-16 -10 -4.959937609537014956e-32 I I #
coedge $-1 -1 $-1 $318 $362 $455 $456 forward $289 $-1 #
edge $-1 -1 $-1 $457 -9.1132237686576687 $320 21.61135922281676613 $318 $458 forward @7 unknown #
point $-1 -1 $-1 851.8937226573632415 365.235600139946996 1100.000000000004547 #
coedge $-1 -1 $-1 $401 $323 $449 $459 reversed $402 $-1 #
coedge $-1 -1 $-1 $323 $400 $325 $406 reversed $402 $-1 #
loop $-1 -1 $-1 $-1 $401 $460 #
vertex $-1 -1 $-1 $391 $461 #
straight-curve $-1 -1 $-1 251.8937226573632415 320.2356001399469392 1100.000000000004547 0 10 -4.427914669998710452e-32 I I #
coedge $-1 -1 $-1 $379 $325 $462 $463 forward $326 $-1 #
edge $-1 -1 $-1 $328 -56.76236518763920458 $464 -26.03778219616476974 $325 $465 forward @7 unknown #
point $-1 -1 $-1 251.8937226573632415 365.2356001399469392 1100.000000000004547 #
DXID-attrib $-1 -1 $-1 $-1 $332 @10 ASM ENTITY @36 6e877fce-685a-48c6-a09b-6f262ec5ab84 #
face $466 -1 $-1 $467 $468 $9 $-1 $469 forward single #
loop $-1 -1 $-1 $-1 $339 $332 #
plane-surface $-1 -1 $-1 1028.906377178634557 235.7041998478031246 1600.000000000004547 0.5144957554275265688 0.8574929257125442073 -1.35952699459656709e-16 -2.642445501745395967e-15 -4.427914669998710452e-32 -10 forward_v I I I I #
coedge $-1 -1 $-1 $470 $335 $443 $471 forward $113 $-1 #
edge $472 -1 $-1 $416 20 $445 80 $335 $473 forward @7 unknown #
coedge $-1 -1 $-1 $369 $336 $362 $434 reversed $415 $-1 #
loop $-1 -1 $-1 $-1 $414 $474 #
vertex $-1 -1 $-1 $370 $475 #
straight-curve $-1 -1 $-1 1001.893722657363469 245.2356001399469676 1950.00000000000432 -7.071067811865473729 -1.38903117322122742e-16 7.07106781186547817 I I #
coedge $-1 -1 $-1 $338 $390 $393 $452 forward $113 $-1 #
coedge $-1 -1 $-1 $476 $477 $338 $420 reversed $468 $-1 #
edge $-1 -1 $-1 $457 -4.71621109141898387 $423 -0.8289098281887916642 $338 $478 forward @7 unknown #
coedge $-1 -1 $-1 $479 $339 $477 $480 forward $410 $-1 #
coedge $-1 -1 $-1 $339 $479 $341 $425 forward $410 $-1 #
vertex $-1 -1 $-1 $340 $481 #
straight-curve $-1 -1 $-1 1013.020710025061476 245.2356001399469676 1850.000000000004547 2.642445501745395967e-15 4.427914669998710452e-32 10 I I #
edge $482 -1 $-1 $483 -11.00000000000000533 $343 -7.666666666666660745 $341 $484 forward @7 unknown #
coedge $-1 -1 $-1 $485 $455 $342 $427 forward $486 $-1 #
edge $487 -1 $-1 $344 0 $483 1.999999999999998224 $426 $488 forward @7 unknown #
point $-1 -1 $-1 1013.020710025061362 245.2356001399469676 1900.000000000004547 #
point $-1 -1 $-1 1051.893722657363469 245.2356001399469676 1900.00000000000432 #
DXID-attrib $-1 -1 $-1 $-1 $346 @10 ASM ENTITY @36 a20cc722-ade9-4434-a59a-744d28fe63ee #
straight-curve $-1 -1 $-1 1276.893722657363242 145.235600139946996 900.0000000000045475 -10 0 2.030122102171714704e-15 I I #
point $-1 -1 $-1 1276.893722657363242 145.235600139946996 900.0000000000045475 #
edge $489 -1 $-1 $366 0 $375 5 $358 $490 forward @7 unknown #
edge $-1 -1 $-1 $372 -2.083022575693185274 $344 28.64156041578124956 $362 $491 forward @7 unknown #
DXID-attrib $-1 -1 $-1 $-1 $363 @10 ASM ENTITY @36 00dce1f4-dbf6-4460-b004-db9205c9d320 #
face $492 -1 $-1 $493 $494 $9 $-1 $495 forward single #
plane-surface $-1 -1 $-1 551.8937226573634689 545.235600139946996 2100.000000000004547 0.5144957554275265688 0.8574929257125442073 -1.35952699459656709e-16 8.57492925712544185 -5.144957554275265466 -2.265878324327611209e-15 forward_v I I I I #
point $-1 -1 $-1 576.8937226573634689 845.235600139946996 2300.000000000004547 #
straight-curve $-1 -1 $-1 851.8937226573634689 320.2356001399469392 2100.000000000004547 0 10 -4.427914669998710452e-32 I I #
point $-1 -1 $-1 851.8937226573634689 365.235600139946996 2100.000000000004547 #
point $-1 -1 $-1 526.8937226573634689 845.235600139946996 2300.000000000004547 #
coedge $-1 -1 $-1 $443 $377 $379 $447 reversed $444 $-1 #
coedge $-1 -1 $-1 $377 $442 $412 $471 reversed $444 $-1 #
loop $-1 -1 $-1 $-1 $442 $496 #
vertex $-1 -1 $-1 $471 $497 #
straight-curve $-1 -1 $-1 251.8937226573634689 320.2356001399469392 2100.000000000004547 3.55271367880050162e-16 -10 -4.959937609537014956e-32 I I #
edge $-1 -1 $-1 $498 -19.52833664712357731 $381 11.19624634435085042 $379 $499 forward @7 unknown #
point $-1 -1 $-1 251.8937226573634689 365.2356001399468823 2100.000000000004547 #
coedge $-1 -1 $-1 $390 $500 $400 $459 forward $113 $-1 #
DXID-attrib $-1 -1 $-1 $-1 $391 @10 ASM ENTITY @36 32c1bb82-3214-4350-9c09-e2ee31651e97 #
straight-curve $-1 -1 $-1 1051.893722657363242 245.2356001399469676 1100.000000000004547 -10 -1.964386723728471942e-16 2.642445501745395967e-15 I I #
edge $-1 -1 $-1 $395 -42.42640687119285303 $457 -14.14213562373095101 $418 $501 forward @7 unknown #
face $502 -1 $-1 $496 $394 $9 $-1 $503 reversed single #
point $-1 -1 $-1 851.8937226573632415 245.2356001399469676 1100.000000000004547 #
coedge $-1 -1 $-1 $426 $504 $397 $456 reversed $486 $-1 #
edge $505 -1 $-1 $344 0 $457 1.047197551196597409 $397 $506 forward @7 unknown #
vertex $-1 -1 $-1 $420 $507 #
straight-curve $-1 -1 $-1 992.5716887590581337 280.8288204789299698 1240.67796610169944 -6.5094455490411951 3.90566732942471706 -6.50944554904119066 I I #
edge $-1 -1 $-1 $464 -7.071067811865470176 $403 21.21320343559643362 $449 $508 forward @7 unknown #
face $509 -1 $-1 $114 $402 $9 $-1 $510 reversed single #
point $-1 -1 $-1 251.8937226573632415 245.2356001399469676 1100.000000000004547 #
coedge $-1 -1 $-1 $511 $512 $405 $463 reversed $513 $-1 #
edge $514 -1 $-1 $464 -6.315935428978669546e-17 $498 1.047197551196597631 $405 $515 forward @7 unknown #
vertex $-1 -1 $-1 $406 $516 #
straight-curve $-1 -1 $-1 -117.5978027663654757 143.5406848857096236 1469.491525423733492 -6.50944554904119066 -3.90566732942471706 6.5094455490411951 I I #
DXID-attrib $-1 -1 $-1 $-1 $409 @10 ASM ENTITY @36 284586ee-2bfa-4ccb-b619-211b12bb6ab7 #
face $517 -1 $-1 $363 $486 $9 $-1 $518 forward single #
loop $-1 -1 $-1 $-1 $419 $409 #
plane-surface $-1 -1 $-1 957.5695008289835641 301.8301332369748593 1300.000000000004547 -2.525201622227902641e-16 -7.034632771049610129e-18 -1 8.574929257125443627 -5.144957554275265466 -2.129149640041302747e-15 forward_v I I I I #
coedge $-1 -1 $-1 $519 $412 $520 $521 forward $113 $-1 #
edge $-1 -1 $-1 $445 28.28427124746190913 $498 56.56854249492381115 $412 $522 forward @7 unknown #
DXID-attrib $-1 -1 $-1 $-1 $413 @10 ASM ENTITY @36 0f4c89d7-a574-4eeb-bc55-21fcb37a2b4a #
straight-curve $-1 -1 $-1 1051.893722657363469 245.2356001399469676 2100.000000000004547 -10 -1.964386723728471942e-16 2.642445501745395967e-15 F 0 F 100 #
face $523 -1 $-1 $460 $415 $9 $-1 $524 reversed single #
point $-1 -1 $-1 851.8937226573634689 245.2356001399469676 2100.000000000004547 #
coedge $-1 -1 $-1 $477 $419 $504 $525 forward $468 $-1 #
coedge $-1 -1 $-1 $419 $476 $421 $480 reversed $468 $-1 #
straight-curve $-1 -1 $-1 1004.731611743173403 245.2356001399469676 1300.000000000004547 -10 -1.964386723728471942e-16 2.52520162222790274e-15 I I #
coedge $-1 -1 $-1 $422 $421 $485 $526 forward $410 $-1 #
edge $527 -1 $-1 $423 -3.333333333333343695 $528 -5.635889666309192197e-15 $477 $529 forward @7 unknown #
point $-1 -1 $-1 1013.020710025061362 245.2356001399469676 1300.000000000004547 #
DXID-attrib $-1 -1 $-1 $-1 $425 @10 ASM ENTITY @36 0c1752c0-5f62-4bdc-a410-de062c838419 #
vertex $-1 -1 $-1 $425 $530 #
straight-curve $-1 -1 $-1 947.2795857204330332 284.6802747227239934 1900.000000000004547 -8.574929257125443627 5.144957554275265466 2.129149640041302747e-15 I I #
coedge $-1 -1 $-1 $504 $426 $479 $526 reversed $486 $-1 #
loop $-1 -1 $-1 $-1 $455 $467 #
DXID-attrib $-1 -1 $-1 $-1 $427 @10 ASM ENTITY @36 d1b0c647-a128-4c82-8017-4e819815cf0a #
straight-curve $-1 -1 $-1 1051.893722657363469 245.2356001399469108 1900.00000000000432 -5.144957554275254807 -8.574929257125448956 1.359526994596564083e-15 I I #
DXID-attrib $-1 -1 $-1 $-1 $433 @10 ASM ENTITY @36 69440d5e-c362-4a17-baa3-92123badc590 #
straight-curve $-1 -1 $-1 576.8937226573634689 845.235600139946996 2300.000000000004547 -10 -1.421085471520200451e-15 2.642445501745395967e-15 I I #
straight-curve $-1 -1 $-1 865.4530446912617663 357.1000069196080062 2086.44067796610625 6.50944554904119066 -3.90566732942471706 -6.5094455490411951 I I #
DXID-attrib $-1 -1 $-1 $-1 $436 @10 ASM ENTITY @36 7480acf9-792a-4ce2-a11c-fa06f0697ac9 #
face $531 -1 $-1 $532 $533 $9 $-1 $534 reversed single #
loop $-1 -1 $-1 $-1 $535 $436 #
plane-surface $-1 -1 $-1 51.89372265736335521 245.2356001399469108 1300.000000000004775 -2.525201622227902641e-16 7.034632771049603967e-18 -1 8.57492925712544185 5.144957554275265466 -2.129149640041303141e-15 forward_v I I I I #
face $536 -1 $-1 $474 $444 $9 $-1 $537 reversed single #
point $-1 -1 $-1 251.8937226573634689 245.2356001399469676 2100.000000000004547 #
vertex $-1 -1 $-1 $463 $538 #
straight-curve $-1 -1 $-1 179.0123667251600637 321.5067865806248619 2027.11864406780137 6.5094455490411951 3.90566732942471706 6.50944554904119066 I I #
coedge $-1 -1 $-1 $449 $519 $535 $539 forward $113 $-1 #
straight-curve $-1 -1 $-1 1151.893722657363242 245.2356001399469676 1400.000000000004547 7.07106781186547817 1.389031173221227913e-16 7.071067811865473729 I I #
DXID-attrib $-1 -1 $-1 $-1 $453 @10 ASM ENTITY @36 5e44daef-bf3d-4485-a5d1-a5df5916f5a0 #
plane-surface $-1 -1 $-1 851.8937226573632415 245.2356001399469676 1100.000000000004547 -0.7071067811865473507 -2.512147933894040747e-17 0.7071067811865477948 7.07106781186547817 1.389031173221227913e-16 7.071067811865473729 forward_v I I I I #
coedge $-1 -1 $-1 $455 $485 $476 $525 reversed $486 $-1 #
DXID-attrib $-1 -1 $-1 $-1 $456 @10 ASM ENTITY @36 78c72a86-5e19-47e8-91d1-ee09e1367830 #
ellipse-curve $-1 -1 $-1 606.3273283178597239 512.5754367436491066 1600.000000000004547 0.5144957554275265688 0.8574929257125443183 -1.35952699459656709e-16 445.566394339503745 -267.3398366037022242 299.9999999999998295 1 F 0 F 1.047197551196597409 #
point $-1 -1 $-1 1051.893722657363242 245.2356001399469676 1300.000000000004547 #
straight-curve $-1 -1 $-1 101.8937226573631847 245.2356001399469676 1250.000000000004547 7.071067811865473729 1.38903117322122742e-16 -7.07106781186547817 I I #
DXID-attrib $-1 -1 $-1 $-1 $460 @10 ASM ENTITY @36 56e97faf-29f6-4c2a-8305-01a0d382ceaa #
plane-surface $-1 -1 $-1 51.89372265736324152 245.2356001399469676 1300.000000000004547 0.7071067811865477948 3.131008489671482423e-33 0.7071067811865473507 7.071067811865473729 1.38903117322122742e-16 -7.07106781186547817 forward_v I I I I #
coedge $-1 -1 $-1 $540 $462 $541 $542 forward $513 $-1 #
coedge $-1 -1 $-1 $462 $540 $543 $544 reversed $513 $-1 #
loop $-1 -1 $-1 $-1 $462 $545 #
DXID-attrib $-1 -1 $-1 $-1 $463 @10 ASM ENTITY @36 d60982f7-6fa3-446e-bb0c-949a97b2d9b3 #
ellipse-curve $-1 -1 $-1 497.4601169968668728 512.5754367436491066 1600.000000000004547 -0.5144957554275265688 0.8574929257125440962 1.637082750752856226e-16 -445.5663943395035176 -267.3398366037021106 -299.9999999999997726 1 F -6.315935428978669546e-17 F 1.047197551196597631 #
point $-1 -1 $-1 51.89372265736324152 245.2356001399469676 1300.000000000004547 #
DXID-attrib $-1 -1 $-1 $-1 $467 @10 ASM ENTITY @36 fa2fda49-6880-48f4-8c4b-00c291d1b18e #
cone-surface $-1 -1 $-1 606.3273283178597239 512.5754367436491066 1600.000000000004547 -0.5144957554275254585 -0.8574929257125448734 1.359526994596564132e-16 445.566394339504086 -267.339836603701599 299.9999999999998295 1 I I 0 1 600.0000000000001137 forward I I I I #
coedge $-1 -1 $-1 $500 $470 $546 $547 forward $113 $-1 #
coedge $-1 -1 $-1 $543 $548 $470 $521 reversed $549 $-1 #
edge $-1 -1 $-1 $498 -54.71621109141899808 $550 -50.82890982818880588 $470 $551 forward @7 unknown #
straight-curve $-1 -1 $-1 451.8937226573634689 245.2356001399469676 2300.000000000004547 -7.07106781186547817 -1.389031173221227913e-16 -7.071067811865473729 I I #
DXID-attrib $-1 -1 $-1 $-1 $474 @10 ASM ENTITY @36 af877316-772b-4706-b165-803c2fd3577b #
plane-surface $-1 -1 $-1 1051.893722657363469 245.2356001399469676 1900.00000000000432 -0.7071067811865477948 -3.131008489671482423e-33 -0.7071067811865473507 -7.071067811865473729 -1.38903117322122742e-16 7.07106781186547817 forward_v I I I I #
edge $552 -1 $-1 $457 0 $528 1.999999999999998224 $476 $553 forward @7 unknown #
edge $554 -1 $-1 $528 -1.047197551196597409 $483 -0 $485 $555 forward @7 unknown #
DXID-attrib $-1 -1 $-1 $-1 $480 @10 ASM ENTITY @36 b659670b-fce2-4532-b4d9-b96902be3e27 #
vertex $-1 -1 $-1 $480 $556 #
straight-curve $-1 -1 $-1 1041.603807548812938 228.0857416256960448 1300.000000000004547 8.574929257125443627 -5.144957554275265466 -2.129149640041302747e-15 I I #
point $-1 -1 $-1 1041.603807548812938 228.0857416256960164 1900.00000000000432 #
DXID-attrib $-1 -1 $-1 $-1 $493 @10 ASM ENTITY @36 cb5ab9d9-8914-4a11-a043-6ac0369989c5 #
face $557 -1 $-1 $545 $549 $9 $-1 $558 forward single #
loop $-1 -1 $-1 $-1 $546 $493 #
plane-surface $-1 -1 $-1 74.88106813609221035 235.704199847803153 1600.000000000004547 -0.5144957554275265688 0.8574929257125440962 1.35952699459656709e-16 2.642445501745395967e-15 4.427914669998710452e-32 10 forward_v I I I I #
coedge $-1 -1 $-1 $559 $541 $500 $539 reversed $494 $-1 #
DXID-attrib $-1 -1 $-1 $-1 $496 @10 ASM ENTITY @36 7d9c0260-ff53-44b2-87b3-0260e9a13dfa #
plane-surface $-1 -1 $-1 251.8937226573635257 245.2356001399469676 2100.000000000004547 0.7071067811865473507 2.512147933894040747e-17 -0.7071067811865477948 -7.07106781186547817 -1.389031173221227913e-16 -7.071067811865473729 forward_v I I I I #
point $-1 -1 $-1 51.89372265736341205 245.2356001399469676 1900.000000000004775 #
edge $-1 -1 $-1 $560 46.11269873676980069 $464 50.00000000000000711 $500 $561 forward @7 unknown #
coedge $-1 -1 $-1 $512 $511 $562 $563 reversed $513 $-1 #
coedge $-1 -1 $-1 $535 $559 $511 $542 reversed $494 $-1 #
edge $564 -1 $-1 $464 0 $565 1.999999999999998224 $511 $566 forward @7 unknown #
coedge $-1 -1 $-1 $548 $520 $512 $544 forward $549 $-1 #
edge $567 -1 $-1 $498 0 $568 1.999999999999998224 $543 $569 forward @7 unknown #
face $570 -1 $-1 $453 $513 $9 $-1 $571 forward single #
coedge $-1 -1 $-1 $572 $573 $519 $547 reversed $533 $-1 #
edge $-1 -1 $-1 $550 -5 $560 54.99999999999998579 $519 $574 forward @7 unknown #
coedge $-1 -1 $-1 $520 $543 $572 $575 reversed $549 $-1 #
loop $-1 -1 $-1 $-1 $520 $532 #
vertex $-1 -1 $-1 $547 $576 #
straight-curve $-1 -1 $-1 599.0558335715534213 245.2356001399469676 1900.000000000004547 10 1.964386723728471942e-16 -2.52520162222790274e-15 I I #
DXID-attrib $-1 -1 $-1 $-1 $525 @10 ASM ENTITY @36 065b7881-6c59-4b39-a0af-c2dbf298a9ff #
straight-curve $-1 -1 $-1 1051.893722657363469 245.2356001399469108 1300.000000000004547 -5.144957554275254807 -8.574929257125448956 1.359526994596564083e-15 I I #
DXID-attrib $-1 -1 $-1 $-1 $526 @10 ASM ENTITY @36 4dbf3f5a-92f3-4fac-9c26-3b1cda15b338 #
ellipse-curve $-1 -1 $-1 596.0374132093093067 495.4255782293982975 1600.000000000004547 -0.5144957554275265688 -0.8574929257125443183 1.35952699459656709e-16 445.566394339503745 -267.3398366037022242 299.9999999999998295 1 I I #
point $-1 -1 $-1 1041.603807548812711 228.0857416256960164 1300.000000000004547 #
DXID-attrib $-1 -1 $-1 $-1 $532 @10 ASM ENTITY @36 073f1b13-cff8-4f9c-a612-33046d4f30df #
plane-surface $-1 -1 $-1 146.2179444857433737 301.8301332369748593 1900.000000000004547 2.525201622227902641e-16 -7.034632771049603967e-18 1 -8.57492925712544185 -5.144957554275265466 2.129149640041303141e-15 forward_v I I I I #
coedge $-1 -1 $-1 $541 $535 $573 $577 reversed $494 $-1 #
vertex $-1 -1 $-1 $539 $578 #
straight-curve $-1 -1 $-1 551.8937226573632415 245.2356001399469676 1300.000000000004547 -10 -1.964386723728471942e-16 2.52520162222790274e-15 I I #
coedge $-1 -1 $-1 $573 $572 $540 $563 forward $533 $-1 #
edge $579 -1 $-1 $568 -1.047197551196597631 $565 6.315935428978669546e-17 $540 $580 forward @7 unknown #
DXID-attrib $-1 -1 $-1 $-1 $542 @10 ASM ENTITY @36 667ed8bf-970b-44c0-ac43-0754934d55c9 #
vertex $-1 -1 $-1 $577 $581 #
straight-curve $-1 -1 $-1 51.89372265736335521 245.2356001399469392 1300.000000000004547 5.144957554275256584 -8.57492925712544718 -1.359526994596564675e-15 I I #
DXID-attrib $-1 -1 $-1 $-1 $544 @10 ASM ENTITY @36 83450260-f39b-4766-a7c4-6ae8d9cbf9fc #
vertex $-1 -1 $-1 $575 $582 #
straight-curve $-1 -1 $-1 51.8937226573634689 245.2356001399469392 1900.000000000004775 5.144957554275256584 -8.57492925712544718 -1.359526994596564675e-15 I I #
DXID-attrib $-1 -1 $-1 $-1 $545 @10 ASM ENTITY @36 935de62b-4496-4154-8018-bee3e791e786 #
cone-surface $-1 -1 $-1 497.4601169968668728 512.5754367436491066 1600.000000000004547 0.5144957554275256806 -0.8574929257125447624 -1.359526994596564625e-16 -445.5663943395038018 -267.3398366037016558 -299.9999999999997726 1 I I 0 1 600 forward I I I I #
coedge $-1 -1 $-1 $562 $546 $548 $575 forward $533 $-1 #
coedge $-1 -1 $-1 $546 $562 $559 $577 forward $533 $-1 #
straight-curve $-1 -1 $-1 90.76673528966512094 245.2356001399469676 1850.000000000004547 -2.642445501745395967e-15 -4.427914669998710452e-32 -10 I I #
edge $583 -1 $-1 $550 -3.333333333333327264 $568 -0 $548 $584 forward @7 unknown #
point $-1 -1 $-1 90.76673528966534832 245.2356001399469676 1900.000000000004547 #
edge $585 -1 $-1 $565 -11.00000000000000178 $560 -7.666666666666667851 $559 $586 forward @7 unknown #
point $-1 -1 $-1 90.76673528966534832 245.2356001399469676 1300.000000000004775 #
DXID-attrib $-1 -1 $-1 $-1 $563 @10 ASM ENTITY @36 ec29be79-252f-4ae9-afe4-14ee9085683c #
ellipse-curve $-1 -1 $-1 507.7500321054174606 495.4255782293982975 1600.000000000004547 0.5144957554275265688 -0.8574929257125440962 -1.637082750752856226e-16 -445.5663943395035744 -267.3398366037021674 -299.9999999999997726 1 I I #
point $-1 -1 $-1 62.1836377659138293 228.0857416256960448 1300.000000000004547 #
point $-1 -1 $-1 62.18363776591399983 228.0857416256960448 1900.000000000004775 #
DXID-attrib $-1 -1 $-1 $-1 $575 @10 ASM ENTITY @36 41ffd28c-efe6-4adc-802c-0eb92cc68984 #
straight-curve $-1 -1 $-1 62.18363776591388614 228.0857416256960732 1900.000000000004775 -8.574929257125443627 -5.144957554275267242 2.129149640041303536e-15 I I #
DXID-attrib $-1 -1 $-1 $-1 $577 @10 ASM ENTITY @36 38958797-e648-4c4c-a552-2c012c085731 #
straight-curve $-1 -1 $-1 156.5078595942937341 284.6802747227239934 1300.000000000004775 8.574929257125443627 5.144957554275267242 -2.129149640041303536e-15 I I #
End-of-ACIS-data 