3000 0 1 0           
15 RobotStudioIRC5 12 ACIS 31.0 NT 24 Thu Jan 27 23:48:32 2022 
1000 1e-08 1e-10 
T @77 2PPVN4PS4QK6UHYKFS79TQ9WX6M3637EWBP3P87V6CDMFC767DDMK8QW69PCPMND3DRKE27AUCG4F 
body $1 -1 -1 $-1 0 $2 $-1 $3 T -0.040000000000000001 -0.040000000000000001 0 0.040000000000000001 0.040000000000000001 0.10000000000000001 #
render-rbase-attrib $-1 -1 $4 $-1 $0 1 1 1 1 1 1 1 1 1 1 1 1 0 1 0 1 1 1 $5 $-1 0 1 1 0 0 0 1 0 0 0 1 0.5 0.5 0 1 no_rotate no_reflect no_shear #
lump $-1 -1 -1 $-1 $-1 $6 $0 T -0.040000000000000001 -0.040000000000000001 0 0.040000000000000001 0.040000000000000001 0.10000000000000001 #
transform $-1 -1 1 0 0 0 1 0 0 0 1 0.5 0.5 0 1 no_rotate no_reflect no_shear #
rgb_color-st-attrib $-1 -1 $7 $1 $0 2 1 2 1 1 1 1 1 1 1 1 1 1 1 0 1 1 1 0.50196078431372548 0.50196078431372548 0.50196078431372548 #
rh_material-rh_entity $-1 -1 4 5 @5 plain @5 color -4 0.50196078431372548 0.50196078431372548 0.50196078431372548 @5 phong @14 ambient factor -2 1 @14 diffuse factor -2 1 @15 specular factor -2 0.75 @8 exponent -2 30 @14 specular color -4 1 1 1 @4 none @5 plain @5 color -4 1 1 1 #
shell $-1 -1 -1 $-1 $-1 $-1 $8 $-1 $2 T -0.040000000000000001 -0.040000000000000001 0 0.040000000000000001 0.040000000000000001 0.10000000000000001 #
vector_attrib-name_attrib-gen-attrib $-1 -1 $9 $4 $0 2 1 1 2 1 1 1 1 1 1 1 1 1 1 0 1 1 1 @18 abb_primitive_size 0.040000000000000001 0.040000000000000001 0.10000000000000001 #
face $10 -1 -1 $-1 $11 $12 $6 $-1 $13 forward single T -0.040000000000000001 -0.040000000000000001 0 0.040000000000000001 0.040000000000000001 0.10000000000000001 F #
integer_attrib-name_attrib-gen-attrib $-1 -1 $-1 $7 $0 2 1 1 1 1 1 1 1 1 1 1 1 1 1 0 1 1 1 @18 abb_primitive_type 2 #
render-rbase-attrib $-1 -1 $14 $-1 $8 1 1 1 1 1 1 1 1 1 1 1 1 0 1 0 1 1 1 $15 $-1 0 1 1 0 0 0 1 0 0 0 1 0.5 0.5 0 1 no_rotate no_reflect no_shear #
face $16 -1 -1 $-1 $17 $18 $6 $-1 $19 forward single T -0.040000000000000001 -0.040000000000000001 0 0.040000000000000001 0.040000000000000001 0 F #
loop $-1 -1 -1 $-1 $20 $21 $8 T -0.040000000000000001 -0.040000000000000001 0 0.040000000000000001 0.040000000000000001 0 unknown #
cone-surface $-1 -1 -1 $-1 0 0 0.050000000000000003 0 0 1 0.040000000000000001 0 0 1 I I 0 1 0.040000000000000001 forward I I I I #
rgb_color-st-attrib $-1 -1 $-1 $10 $8 2 1 2 1 1 1 1 1 1 1 1 1 1 1 0 1 1 1 0.50196078431372548 0.50196078431372548 0.50196078431372548 #
rh_material-rh_entity $-1 -1 4 5 @5 plain @5 color -4 0.50196078431372548 0.50196078431372548 0.50196078431372548 @5 phong @14 ambient factor -2 1 @14 diffuse factor -2 1 @15 specular factor -2 0.75 @8 exponent -2 30 @14 specular color -4 1 1 1 @4 none @5 plain @5 color -4 1 1 1 #
render-rbase-attrib $-1 -1 $22 $-1 $11 1 1 1 1 1 1 1 1 1 1 1 1 0 1 0 1 1 1 $23 $-1 0 1 1 0 0 0 1 0 0 0 1 0.5 0.5 0 1 no_rotate no_reflect no_shear #
face $24 -1 -1 $-1 $-1 $25 $6 $-1 $26 forward single T -0.040000000000000001 -0.040000000000000001 0.10000000000000001 0.040000000000000001 0.040000000000000001 0.10000000000000001 F #
loop $-1 -1 -1 $-1 $-1 $27 $11 T -0.040000000000000001 -0.040000000000000001 0 0.040000000000000001 0.040000000000000001 0 unknown #
plane-surface $-1 -1 -1 $-1 0 0 0 0 0 -1 -1 0 0 forward_v I I I I #
loop $-1 -1 -1 $-1 $-1 $28 $8 T -0.040000000000000001 -0.040000000000000001 0.10000000000000001 0.040000000000000001 0.040000000000000001 0.10000000000000001 unknown #
coedge $-1 -1 -1 $-1 $21 $21 $27 $29 reversed $12 $-1 #
rgb_color-st-attrib $-1 -1 $-1 $16 $11 2 1 2 1 1 1 1 1 1 1 1 1 1 1 0 1 1 1 0.50196078431372548 0.50196078431372548 0.50196078431372548 #
rh_material-rh_entity $-1 -1 4 5 @5 plain @5 color -4 0.50196078431372548 0.50196078431372548 0.50196078431372548 @5 phong @14 ambient factor -2 1 @14 diffuse factor -2 1 @15 specular factor -2 0.75 @8 exponent -2 30 @14 specular color -4 1 1 1 @4 none @5 plain @5 color -4 1 1 1 #
render-rbase-attrib $-1 -1 $30 $-1 $17 1 1 1 1 1 1 1 1 1 1 1 1 0 1 0 1 1 1 $31 $-1 0 1 1 0 0 0 1 0 0 0 1 0.5 0.5 0 1 no_rotate no_reflect no_shear #
loop $-1 -1 -1 $-1 $-1 $32 $17 T -0.040000000000000001 -0.040000000000000001 0.10000000000000001 0.040000000000000001 0.040000000000000001 0.10000000000000001 unknown #
plane-surface $-1 -1 -1 $-1 0 0 0.10000000000000001 0 0 1 1 0 0 forward_v I I I I #
coedge $-1 -1 -1 $-1 $27 $27 $21 $29 forward $18 $-1 #
coedge $-1 -1 -1 $-1 $28 $28 $32 $33 reversed $20 $-1 #
edge $-1 -1 -1 $-1 $34 0 $34 6.2831853071795862 $27 $35 forward @7 unknown T -0.040000000000000001 -0.040000000000000001 0 0.040000000000000001 0.040000000000000001 0 #
rgb_color-st-attrib $-1 -1 $-1 $24 $17 2 1 2 1 1 1 1 1 1 1 1 1 1 1 0 1 1 1 0.50196078431372548 0.50196078431372548 0.50196078431372548 #
rh_material-rh_entity $-1 -1 4 5 @5 plain @5 color -4 0.50196078431372548 0.50196078431372548 0.50196078431372548 @5 phong @14 ambient factor -2 1 @14 diffuse factor -2 1 @15 specular factor -2 0.75 @8 exponent -2 30 @14 specular color -4 1 1 1 @4 none @5 plain @5 color -4 1 1 1 #
coedge $-1 -1 -1 $-1 $32 $32 $28 $33 forward $25 $-1 #
edge $-1 -1 -1 $-1 $36 0 $36 6.2831853071795862 $32 $37 forward @7 unknown T -0.040000000000000001 -0.040000000000000001 0.10000000000000001 0.040000000000000001 0.040000000000000001 0.10000000000000001 #
vertex $-1 -1 -1 $-1 $29 $38 #
ellipse-curve $-1 -1 -1 $-1 0 0 0 0 0 -1 0.040000000000000001 0 0 1 I I #
vertex $-1 -1 -1 $-1 $33 $39 #
ellipse-curve $-1 -1 -1 $-1 0 0 0.10000000000000001 0 0 1 0.040000000000000001 0 0 1 I I #
point $-1 -1 -1 $-1 0.040000000000000001 0 0 #
point $-1 -1 -1 $-1 0.040000000000000001 0 0.10000000000000001 #
End-of-ACIS-data 