3000 0 3 0           
15 RobotStudioIRC5 12 ACIS 31.0 NT 24 Thu Jan 27 18:36:19 2022 
1000 1e-08 1e-10 
T @77 FSY6YMD3_VVGW3F8WC8JR3RHZ58V6N7X8DF4K8NHUCRVKGQUTATUQ86XABMVE676BDQKK8QEU8UCN 
body $3 -1 -1 $-1 0 $4 $-1 $5 T 0 0 0 0.10000000000000001 0.10000000000000001 0.070000000000000007 #
body $6 -1 -1 $-1 0 $7 $-1 $8 T -0.050000000000000003 -0.050000000000000003 0 0.050000000000000003 0.050000000000000003 0.20000000000000001 #
body $9 -1 -1 $-1 0 $10 $-1 $11 T -0.0050000000000000001 -0.0050000000000000001 0 0.0050000000000000001 0.0050000000000000001 0.25 #
render-rbase-attrib $-1 -1 $12 $-1 $0 1 1 1 1 1 1 1 1 1 1 1 1 0 1 0 1 1 1 $13 $-1 0 1 1 0 0 0 1 0 0 0 1 0 0 0 1 no_rotate no_reflect no_shear #
lump $-1 -1 -1 $-1 $-1 $14 $0 T 0 0 0 0.10000000000000001 0.10000000000000001 0.070000000000000007 #
transform $-1 -1 1 0 0 0 1 0 0 0 1 0 0 0 1 no_rotate no_reflect no_shear #
render-rbase-attrib $-1 -1 $15 $-1 $1 1 1 1 1 1 1 1 1 1 1 1 1 0 1 0 1 1 1 $16 $-1 0 1 0 0 -1 -0 1 0 1 0 0 -0.050000000000000003 0.050000000000000003 0.070000000000000007 1 rotate no_reflect no_shear #
lump $-1 -1 -1 $-1 $-1 $17 $1 T -0.050000000000000003 -0.050000000000000003 0 0.050000000000000003 0.050000000000000003 0.20000000000000001 #
transform $-1 -1 0 0 -1 -0 1 0 1 0 0 -0.050000000000000003 0.050000000000000003 0.070000000000000007 1 rotate no_reflect no_shear #
render-rbase-attrib $-1 -1 $18 $-1 $2 1 1 1 1 1 1 1 1 1 1 1 1 0 1 0 1 1 1 $19 $-1 0 1 1 0 0 0 1 0 0 0 1 0.050000000000000003 0.050000000000000003 0 1 no_rotate no_reflect no_shear #
lump $-1 -1 -1 $-1 $-1 $20 $2 T -0.0050000000000000001 -0.0050000000000000001 0 0.0050000000000000001 0.0050000000000000001 0.25 #
transform $-1 -1 1 0 0 0 1 0 0 0 1 0.050000000000000003 0.050000000000000003 0 1 no_rotate no_reflect no_shear #
rgb_color-st-attrib $-1 -1 $21 $3 $0 2 1 2 1 1 1 1 1 1 1 1 1 1 1 0 1 1 1 0.50196078431372548 0.50196078431372548 0.50196078431372548 #
rh_material-rh_entity $-1 -1 4 5 @5 plain @5 color -4 0.50196078431372548 0.50196078431372548 0.50196078431372548 @5 phong @14 ambient factor -2 1 @14 diffuse factor -2 1 @15 specular factor -2 0.75 @8 exponent -2 30 @14 specular color -4 1 1 1 @4 none @5 plain @5 color -4 1 1 1 #
shell $-1 -1 -1 $-1 $-1 $-1 $22 $-1 $4 T 0 0 0 0.10000000000000001 0.10000000000000001 0.070000000000000007 #
rgb_color-st-attrib $-1 -1 $23 $6 $1 2 1 2 1 1 1 1 1 1 1 1 1 1 1 0 1 1 1 0.50196078431372548 0.50196078431372548 0.50196078431372548 #
rh_material-rh_entity $-1 -1 4 5 @5 plain @5 color -4 0.50196078431372548 0.50196078431372548 0.50196078431372548 @5 phong @14 ambient factor -2 1 @14 diffuse factor -2 1 @15 specular factor -2 0.75 @8 exponent -2 30 @14 specular color -4 1 1 1 @4 none @5 plain @5 color -4 1 1 1 #
shell $-1 -1 -1 $-1 $-1 $-1 $24 $-1 $7 T -0.050000000000000003 -0.050000000000000003 0 0.050000000000000003 0.050000000000000003 0.20000000000000001 #
rgb_color-st-attrib $-1 -1 $25 $9 $2 2 1 2 1 1 1 1 1 1 1 1 1 1 1 0 1 1 1 0.50196078431372548 0.50196078431372548 0.50196078431372548 #
rh_material-rh_entity $-1 -1 4 5 @5 plain @5 color -4 0.50196078431372548 0.50196078431372548 0.50196078431372548 @5 phong @14 ambient factor -2 1 @14 diffuse factor -2 1 @15 specular factor -2 0.75 @8 exponent -2 30 @14 specular color -4 1 1 1 @4 none @5 plain @5 color -4 1 1 1 #
shell $-1 -1 -1 $-1 $-1 $-1 $26 $-1 $10 T -0.0050000000000000001 -0.0050000000000000001 0 0.0050000000000000001 0.0050000000000000001 0.25 #
vector_attrib-name_attrib-gen-attrib $-1 -1 $27 $12 $0 2 1 1 2 1 1 1 1 1 1 1 1 1 1 0 1 1 1 @18 abb_primitive_size 0.10000000000000001 0.10000000000000001 0.070000000000000007 #
face $28 -1 -1 $-1 $29 $30 $14 $-1 $31 forward single T 0 0 0.070000000000000007 0.10000000000000001 0.10000000000000001 0.070000000000000007 T -0.050000000000000003 0.050000000000000003 -0.050000000000000003 0.050000000000000003 #
vector_attrib-name_attrib-gen-attrib $-1 -1 $32 $15 $1 2 1 1 2 1 1 1 1 1 1 1 1 1 1 0 1 1 1 @18 abb_primitive_size 0.050000000000000003 0.050000000000000003 0.20000000000000001 #
face $33 -1 -1 $-1 $34 $35 $17 $-1 $36 forward single T -0.050000000000000003 -0.050000000000000003 0 0.050000000000000003 0.050000000000000003 0.20000000000000001 F #
vector_attrib-name_attrib-gen-attrib $-1 -1 $37 $18 $2 2 1 1 2 1 1 1 1 1 1 1 1 1 1 0 1 1 1 @18 abb_primitive_size 0.0050000000000000001 0.0050000000000000001 0.25 #
face $38 -1 -1 $-1 $39 $40 $20 $-1 $41 forward single T -0.0050000000000000001 -0.0050000000000000001 0 0.0050000000000000001 0.0050000000000000001 0.25 F #
integer_attrib-name_attrib-gen-attrib $-1 -1 $-1 $21 $0 2 1 1 1 1 1 1 1 1 1 1 1 1 1 0 1 1 1 @18 abb_primitive_type 1 #
render-rbase-attrib $-1 -1 $42 $-1 $22 1 1 1 1 1 1 1 1 1 1 1 1 0 1 0 1 1 1 $43 $-1 0 1 1 0 0 0 1 0 0 0 1 0 0 0 1 no_rotate no_reflect no_shear #
face $44 -1 -1 $-1 $45 $46 $14 $-1 $47 reversed single T 0 0 0 0.10000000000000001 0.10000000000000001 0 T -0.050000000000000003 0.050000000000000003 -0.050000000000000003 0.050000000000000003 #
loop $-1 -1 -1 $-1 $-1 $48 $22 T 0 0 0.070000000000000007 0.10000000000000001 0.10000000000000001 0.070000000000000007 unknown #
plane-surface $-1 -1 -1 $-1 0.050000000000000003 0.050000000000000003 0.070000000000000007 0 0 1 1 0 0 forward_v I I I I #
integer_attrib-name_attrib-gen-attrib $-1 -1 $-1 $23 $1 2 1 1 1 1 1 1 1 1 1 1 1 1 1 0 1 1 1 @18 abb_primitive_type 2 #
render-rbase-attrib $-1 -1 $49 $-1 $24 1 1 1 1 1 1 1 1 1 1 1 1 0 1 0 1 1 1 $50 $-1 0 1 0 0 -1 -0 1 0 1 0 0 -0.050000000000000003 0.050000000000000003 0.070000000000000007 1 rotate no_reflect no_shear #
face $51 -1 -1 $-1 $52 $53 $17 $-1 $54 forward single T -0.050000000000000003 -0.050000000000000003 0 0.050000000000000003 0.050000000000000003 0 T -0.050000000000000003 0.05000000000000001 -0.050000000000000003 0.05000000000000001 #
loop $-1 -1 -1 $-1 $55 $56 $24 T -0.050000000000000003 -0.050000000000000003 0 0.050000000000000003 0.050000000000000003 0 unknown #
cone-surface $-1 -1 -1 $-1 0 0 0.10000000000000001 0 0 1 0.050000000000000003 0 0 1 I I 0 1 0.050000000000000003 forward I I I I #
integer_attrib-name_attrib-gen-attrib $-1 -1 $-1 $25 $2 2 1 1 1 1 1 1 1 1 1 1 1 1 1 0 1 1 1 @18 abb_primitive_type 2 #
render-rbase-attrib $-1 -1 $57 $-1 $26 1 1 1 1 1 1 1 1 1 1 1 1 0 1 0 1 1 1 $58 $-1 0 1 1 0 0 0 1 0 0 0 1 0.050000000000000003 0.050000000000000003 0 1 no_rotate no_reflect no_shear #
face $59 -1 -1 $-1 $60 $61 $20 $-1 $62 forward single T -0.0050000000000000001 -0.0050000000000000001 0 0.0050000000000000001 0.0050000000000000001 0 F #
loop $-1 -1 -1 $-1 $63 $64 $26 T -0.0050000000000000001 -0.0050000000000000001 0 0.0050000000000000001 0.0050000000000000001 0 unknown #
cone-surface $-1 -1 -1 $-1 0 0 0.125 0 0 1 0.0050000000000000001 0 0 1 I I 0 1 0.0050000000000000001 forward I I I I #
rgb_color-st-attrib $-1 -1 $-1 $28 $22 2 1 2 1 1 1 1 1 1 1 1 1 1 1 0 1 1 1 0.50196078431372548 0.50196078431372548 0.50196078431372548 #
rh_material-rh_entity $-1 -1 4 5 @5 plain @5 color -4 0.50196078431372548 0.50196078431372548 0.50196078431372548 @5 phong @14 ambient factor -2 1 @14 diffuse factor -2 1 @15 specular factor -2 0.75 @8 exponent -2 30 @14 specular color -4 1 1 1 @4 none @5 plain @5 color -4 1 1 1 #
render-rbase-attrib $-1 -1 $65 $-1 $29 1 1 1 1 1 1 1 1 1 1 1 1 0 1 0 1 1 1 $66 $-1 0 1 1 0 0 0 1 0 0 0 1 0 0 0 1 no_rotate no_reflect no_shear #
face $67 -1 -1 $-1 $68 $69 $14 $-1 $70 reversed single T 0 0 0 0.10000000000000001 0 0.070000000000000007 F #
loop $-1 -1 -1 $-1 $-1 $71 $29 T 0 0 0 0.10000000000000001 0.10000000000000001 0 unknown #
plane-surface $-1 -1 -1 $-1 0.050000000000000003 0.050000000000000003 0 0 0 1 1 0 0 forward_v I I I I #
coedge $-1 -1 -1 $-1 $72 $73 $74 $75 forward $30 $-1 #
rgb_color-st-attrib $-1 -1 $-1 $33 $24 2 1 2 1 1 1 1 1 1 1 1 1 1 1 0 1 1 1 0.50196078431372548 0.50196078431372548 0.50196078431372548 #
rh_material-rh_entity $-1 -1 4 5 @5 plain @5 color -4 0.50196078431372548 0.50196078431372548 0.50196078431372548 @5 phong @14 ambient factor -2 1 @14 diffuse factor -2 1 @15 specular factor -2 0.75 @8 exponent -2 30 @14 specular color -4 1 1 1 @4 none @5 plain @5 color -4 1 1 1 #
render-rbase-attrib $-1 -1 $76 $-1 $34 1 1 1 1 1 1 1 1 1 1 1 1 0 1 0 1 1 1 $77 $-1 0 1 0 0 -1 -0 1 0 1 0 0 -0.050000000000000003 0.050000000000000003 0.070000000000000007 1 rotate no_reflect no_shear #
face $78 -1 -1 $-1 $-1 $79 $17 $-1 $80 forward single T -0.050000000000000003 -0.050000000000000003 0.20000000000000001 0.050000000000000003 0.050000000000000003 0.20000000000000001 T -0.05000000000000001 0.050000000000000003 -0.05000000000000001 0.050000000000000003 #
loop $-1 -1 -1 $-1 $-1 $81 $34 T -0.050000000000000003 -0.050000000000000003 0 0.050000000000000003 0.050000000000000003 0 unknown #
plane-surface $-1 -1 -1 $-1 0 0 0 0 0 -1 -1 0 0 forward_v I I I I #
loop $-1 -1 -1 $-1 $-1 $82 $24 T -0.050000000000000003 -0.050000000000000003 0.20000000000000001 0.050000000000000003 0.050000000000000003 0.20000000000000001 unknown #
coedge $-1 -1 -1 $-1 $56 $56 $81 $83 reversed $35 $-1 #
rgb_color-st-attrib $-1 -1 $-1 $38 $26 2 1 2 1 1 1 1 1 1 1 1 1 1 1 0 1 1 1 0.50196078431372548 0.50196078431372548 0.50196078431372548 #
rh_material-rh_entity $-1 -1 4 5 @5 plain @5 color -4 0.50196078431372548 0.50196078431372548 0.50196078431372548 @5 phong @14 ambient factor -2 1 @14 diffuse factor -2 1 @15 specular factor -2 0.75 @8 exponent -2 30 @14 specular color -4 1 1 1 @4 none @5 plain @5 color -4 1 1 1 #
render-rbase-attrib $-1 -1 $84 $-1 $39 1 1 1 1 1 1 1 1 1 1 1 1 0 1 0 1 1 1 $85 $-1 0 1 1 0 0 0 1 0 0 0 1 0.050000000000000003 0.050000000000000003 0 1 no_rotate no_reflect no_shear #
face $86 -1 -1 $-1 $-1 $87 $20 $-1 $88 forward single T -0.0050000000000000001 -0.0050000000000000001 0.25 0.0050000000000000001 0.0050000000000000001 0.25 F #
loop $-1 -1 -1 $-1 $-1 $89 $39 T -0.0050000000000000001 -0.0050000000000000001 0 0.0050000000000000001 0.0050000000000000001 0 unknown #
plane-surface $-1 -1 -1 $-1 0 0 0 0 0 -1 -1 0 0 forward_v I I I I #
loop $-1 -1 -1 $-1 $-1 $90 $26 T -0.0050000000000000001 -0.0050000000000000001 0.25 0.0050000000000000001 0.0050000000000000001 0.25 unknown #
coedge $-1 -1 -1 $-1 $64 $64 $89 $91 reversed $40 $-1 #
rgb_color-st-attrib $-1 -1 $-1 $44 $29 2 1 2 1 1 1 1 1 1 1 1 1 1 1 0 1 1 1 0.50196078431372548 0.50196078431372548 0.50196078431372548 #
rh_material-rh_entity $-1 -1 4 5 @5 plain @5 color -4 0.50196078431372548 0.50196078431372548 0.50196078431372548 @5 phong @14 ambient factor -2 1 @14 diffuse factor -2 1 @15 specular factor -2 0.75 @8 exponent -2 30 @14 specular color -4 1 1 1 @4 none @5 plain @5 color -4 1 1 1 #
render-rbase-attrib $-1 -1 $92 $-1 $45 1 1 1 1 1 1 1 1 1 1 1 1 0 1 0 1 1 1 $93 $-1 0 1 1 0 0 0 1 0 0 0 1 0 0 0 1 no_rotate no_reflect no_shear #
face $94 -1 -1 $-1 $95 $96 $14 $-1 $97 reversed single T 0 0 0 0 0.10000000000000001 0.070000000000000007 F #
loop $-1 -1 -1 $-1 $-1 $98 $45 T 0 0 0 0.10000000000000001 0 0.070000000000000007 unknown #
plane-surface $-1 -1 -1 $-1 0.050000000000000003 0 0.035000000000000003 0 1 0 0 0 1 forward_v I I I I #
coedge $-1 -1 -1 $-1 $99 $100 $101 $102 forward $46 $-1 #
coedge $-1 -1 -1 $-1 $103 $48 $104 $105 forward $30 $-1 #
coedge $-1 -1 -1 $-1 $48 $103 $106 $107 forward $30 $-1 #
coedge $-1 -1 -1 $-1 $108 $109 $48 $75 reversed $110 $-1 #
edge $-1 -1 -1 $-1 $111 -0.050000000000000003 $112 0.050000000000000003 $74 $113 forward @7 unknown T 0.10000000000000001 0 0.070000000000000007 0.10000000000000001 0.10000000000000001 0.070000000000000007 #
rgb_color-st-attrib $-1 -1 $-1 $51 $34 2 1 2 1 1 1 1 1 1 1 1 1 1 1 0 1 1 1 0.50196078431372548 0.50196078431372548 0.50196078431372548 #
rh_material-rh_entity $-1 -1 4 5 @5 plain @5 color -4 0.50196078431372548 0.50196078431372548 0.50196078431372548 @5 phong @14 ambient factor -2 1 @14 diffuse factor -2 1 @15 specular factor -2 0.75 @8 exponent -2 30 @14 specular color -4 1 1 1 @4 none @5 plain @5 color -4 1 1 1 #
render-rbase-attrib $-1 -1 $114 $-1 $52 1 1 1 1 1 1 1 1 1 1 1 1 0 1 0 1 1 1 $115 $-1 0 1 0 0 -1 -0 1 0 1 0 0 -0.050000000000000003 0.050000000000000003 0.070000000000000007 1 rotate no_reflect no_shear #
loop $-1 -1 -1 $-1 $-1 $116 $52 T -0.050000000000000003 -0.050000000000000003 0.20000000000000001 0.050000000000000003 0.050000000000000003 0.20000000000000001 unknown #
plane-surface $-1 -1 -1 $-1 0 0 0.20000000000000001 0 0 1 1 0 0 forward_v I I I I #
coedge $-1 -1 -1 $-1 $81 $81 $56 $83 forward $53 $-1 #
coedge $-1 -1 -1 $-1 $82 $82 $116 $117 reversed $55 $-1 #
edge $-1 -1 -1 $-1 $118 0 $118 6.2831853071795862 $81 $119 forward @7 unknown T -0.050000000000000003 -0.050000000000000003 0 0.050000000000000003 0.050000000000000003 0 #
rgb_color-st-attrib $-1 -1 $-1 $59 $39 2 1 2 1 1 1 1 1 1 1 1 1 1 1 0 1 1 1 0.50196078431372548 0.50196078431372548 0.50196078431372548 #
rh_material-rh_entity $-1 -1 4 5 @5 plain @5 color -4 0.50196078431372548 0.50196078431372548 0.50196078431372548 @5 phong @14 ambient factor -2 1 @14 diffuse factor -2 1 @15 specular factor -2 0.75 @8 exponent -2 30 @14 specular color -4 1 1 1 @4 none @5 plain @5 color -4 1 1 1 #
render-rbase-attrib $-1 -1 $120 $-1 $60 1 1 1 1 1 1 1 1 1 1 1 1 0 1 0 1 1 1 $121 $-1 0 1 1 0 0 0 1 0 0 0 1 0.050000000000000003 0.050000000000000003 0 1 no_rotate no_reflect no_shear #
loop $-1 -1 -1 $-1 $-1 $122 $60 T -0.0050000000000000001 -0.0050000000000000001 0.25 0.0050000000000000001 0.0050000000000000001 0.25 unknown #
plane-surface $-1 -1 -1 $-1 0 0 0.25 0 0 1 1 0 0 forward_v I I I I #
coedge $-1 -1 -1 $-1 $89 $89 $64 $91 forward $61 $-1 #
coedge $-1 -1 -1 $-1 $90 $90 $122 $123 reversed $63 $-1 #
edge $-1 -1 -1 $-1 $124 0 $124 6.2831853071795862 $89 $125 forward @7 unknown T -0.0050000000000000001 -0.0050000000000000001 0 0.0050000000000000001 0.0050000000000000001 0 #
rgb_color-st-attrib $-1 -1 $-1 $67 $45 2 1 2 1 1 1 1 1 1 1 1 1 1 1 0 1 1 1 0.50196078431372548 0.50196078431372548 0.50196078431372548 #
rh_material-rh_entity $-1 -1 4 5 @5 plain @5 color -4 0.50196078431372548 0.50196078431372548 0.50196078431372548 @5 phong @14 ambient factor -2 1 @14 diffuse factor -2 1 @15 specular factor -2 0.75 @8 exponent -2 30 @14 specular color -4 1 1 1 @4 none @5 plain @5 color -4 1 1 1 #
render-rbase-attrib $-1 -1 $126 $-1 $68 1 1 1 1 1 1 1 1 1 1 1 1 0 1 0 1 1 1 $127 $-1 0 1 1 0 0 0 1 0 0 0 1 0 0 0 1 no_rotate no_reflect no_shear #
face $128 -1 -1 $-1 $129 $130 $14 $-1 $131 reversed single T 0 0.10000000000000001 0 0.10000000000000001 0.10000000000000001 0.070000000000000007 F #
loop $-1 -1 -1 $-1 $-1 $132 $68 T 0 0 0 0 0.10000000000000001 0.070000000000000007 unknown #
plane-surface $-1 -1 -1 $-1 0 0.050000000000000003 0.035000000000000003 1 0 0 0 0 -1 forward_v I I I I #
coedge $-1 -1 -1 $-1 $133 $106 $134 $135 forward $69 $-1 #
coedge $-1 -1 -1 $-1 $136 $71 $133 $137 forward $46 $-1 #
coedge $-1 -1 -1 $-1 $71 $136 $138 $139 forward $46 $-1 #
coedge $-1 -1 -1 $-1 $109 $108 $71 $102 reversed $110 $-1 #
edge $-1 -1 -1 $-1 $140 -0.050000000000000003 $141 0.050000000000000003 $101 $142 forward @7 unknown T 0.10000000000000001 0 0 0.10000000000000001 0.10000000000000001 0 #
coedge $-1 -1 -1 $-1 $73 $72 $143 $144 forward $30 $-1 #
coedge $-1 -1 -1 $-1 $145 $146 $72 $105 reversed $130 $-1 #
edge $-1 -1 -1 $-1 $112 -0.050000000000000003 $147 0.050000000000000003 $104 $148 forward @7 unknown T 0 0.10000000000000001 0.070000000000000007 0.10000000000000001 0.10000000000000001 0.070000000000000007 #
coedge $-1 -1 -1 $-1 $98 $149 $73 $107 reversed $69 $-1 #
edge $-1 -1 -1 $-1 $150 -0.050000000000000003 $111 0.050000000000000003 $106 $151 forward @7 unknown T 0 0 0.070000000000000007 0.10000000000000001 0 0.070000000000000007 #
coedge $-1 -1 -1 $-1 $101 $74 $149 $152 forward $110 $-1 #
coedge $-1 -1 -1 $-1 $74 $101 $145 $153 reversed $110 $-1 #
loop $-1 -1 -1 $-1 $-1 $108 $129 T 0.10000000000000001 0 0 0.10000000000000001 0.10000000000000001 0.070000000000000007 unknown #
vertex $-1 -1 -1 $-1 $75 $154 #
vertex $-1 -1 -1 $-1 $75 $155 #
straight-curve $-1 -1 -1 $-1 0.10000000000000001 0.050000000000000003 0.070000000000000007 0 1 0 I I #
rgb_color-st-attrib $-1 -1 $-1 $78 $52 2 1 2 1 1 1 1 1 1 1 1 1 1 1 0 1 1 1 0.50196078431372548 0.50196078431372548 0.50196078431372548 #
rh_material-rh_entity $-1 -1 4 5 @5 plain @5 color -4 0.50196078431372548 0.50196078431372548 0.50196078431372548 @5 phong @14 ambient factor -2 1 @14 diffuse factor -2 1 @15 specular factor -2 0.75 @8 exponent -2 30 @14 specular color -4 1 1 1 @4 none @5 plain @5 color -4 1 1 1 #
coedge $-1 -1 -1 $-1 $116 $116 $82 $117 forward $79 $-1 #
edge $-1 -1 -1 $-1 $156 0 $156 6.2831853071795862 $116 $157 forward @7 unknown T -0.050000000000000003 -0.050000000000000003 0.20000000000000001 0.050000000000000003 0.050000000000000003 0.20000000000000001 #
vertex $-1 -1 -1 $-1 $83 $158 #
ellipse-curve $-1 -1 -1 $-1 0 0 0 0 0 -1 0.050000000000000003 0 0 1 I I #
rgb_color-st-attrib $-1 -1 $-1 $86 $60 2 1 2 1 1 1 1 1 1 1 1 1 1 1 0 1 1 1 0.50196078431372548 0.50196078431372548 0.50196078431372548 #
rh_material-rh_entity $-1 -1 4 5 @5 plain @5 color -4 0.50196078431372548 0.50196078431372548 0.50196078431372548 @5 phong @14 ambient factor -2 1 @14 diffuse factor -2 1 @15 specular factor -2 0.75 @8 exponent -2 30 @14 specular color -4 1 1 1 @4 none @5 plain @5 color -4 1 1 1 #
coedge $-1 -1 -1 $-1 $122 $122 $90 $123 forward $87 $-1 #
edge $-1 -1 -1 $-1 $159 0 $159 6.2831853071795862 $122 $160 forward @7 unknown T -0.0050000000000000001 -0.0050000000000000001 0.25 0.0050000000000000001 0.0050000000000000001 0.25 #
vertex $-1 -1 -1 $-1 $91 $161 #
ellipse-curve $-1 -1 -1 $-1 0 0 0 0 0 -1 0.0050000000000000001 0 0 1 I I #
rgb_color-st-attrib $-1 -1 $-1 $94 $68 2 1 2 1 1 1 1 1 1 1 1 1 1 1 0 1 1 1 0.50196078431372548 0.50196078431372548 0.50196078431372548 #
rh_material-rh_entity $-1 -1 4 5 @5 plain @5 color -4 0.50196078431372548 0.50196078431372548 0.50196078431372548 @5 phong @14 ambient factor -2 1 @14 diffuse factor -2 1 @15 specular factor -2 0.75 @8 exponent -2 30 @14 specular color -4 1 1 1 @4 none @5 plain @5 color -4 1 1 1 #
render-rbase-attrib $-1 -1 $162 $-1 $95 1 1 1 1 1 1 1 1 1 1 1 1 0 1 0 1 1 1 $163 $-1 0 1 1 0 0 0 1 0 0 0 1 0 0 0 1 no_rotate no_reflect no_shear #
face $164 -1 -1 $-1 $-1 $110 $14 $-1 $165 reversed single T 0.10000000000000001 0 0 0.10000000000000001 0.10000000000000001 0.070000000000000007 F #
loop $-1 -1 -1 $-1 $-1 $145 $95 T 0 0.10000000000000001 0 0.10000000000000001 0.10000000000000001 0.070000000000000007 unknown #
plane-surface $-1 -1 -1 $-1 0.050000000000000003 0.10000000000000001 0.035000000000000003 0 -1 0 0 0 -1 forward_v I I I I #
coedge $-1 -1 -1 $-1 $166 $143 $146 $167 forward $96 $-1 #
coedge $-1 -1 -1 $-1 $149 $98 $99 $137 reversed $69 $-1 #
coedge $-1 -1 -1 $-1 $143 $166 $98 $135 reversed $96 $-1 #
edge $-1 -1 -1 $-1 $150 -0.035000000000000003 $168 0.035000000000000003 $134 $169 forward @7 unknown T 0 0 0 0 0 0.070000000000000007 #
coedge $-1 -1 -1 $-1 $100 $99 $166 $170 forward $46 $-1 #
edge $-1 -1 -1 $-1 $141 -0.050000000000000003 $168 0.050000000000000003 $133 $171 forward @7 unknown T 0 0 0 0.10000000000000001 0 0 #
coedge $-1 -1 -1 $-1 $146 $145 $100 $139 reversed $130 $-1 #
edge $-1 -1 -1 $-1 $172 -0.050000000000000003 $140 0.050000000000000003 $138 $173 forward @7 unknown T 0 0.10000000000000001 0 0.10000000000000001 0.10000000000000001 0 #
vertex $-1 -1 -1 $-1 $102 $174 #
vertex $-1 -1 -1 $-1 $152 $175 #
straight-curve $-1 -1 -1 $-1 0.10000000000000001 0.050000000000000003 0 0 -1 0 I I #
coedge $-1 -1 -1 $-1 $132 $134 $103 $144 reversed $96 $-1 #
edge $-1 -1 -1 $-1 $147 -0.050000000000000003 $150 0.050000000000000003 $143 $176 forward @7 unknown T 0 0 0.070000000000000007 0 0.10000000000000001 0.070000000000000007 #
coedge $-1 -1 -1 $-1 $138 $104 $109 $153 forward $130 $-1 #
coedge $-1 -1 -1 $-1 $104 $138 $132 $167 reversed $130 $-1 #
vertex $-1 -1 -1 $-1 $105 $177 #
straight-curve $-1 -1 -1 $-1 0.050000000000000003 0.10000000000000001 0.070000000000000007 -1 0 0 I I #
coedge $-1 -1 -1 $-1 $106 $133 $108 $152 reversed $69 $-1 #
vertex $-1 -1 -1 $-1 $144 $178 #
straight-curve $-1 -1 -1 $-1 0.050000000000000003 0 0.070000000000000007 1 0 0 I I #
edge $-1 -1 -1 $-1 $111 -0.035000000000000003 $141 0.035000000000000003 $108 $179 forward @7 unknown T 0.10000000000000001 0 0 0.10000000000000001 0 0.070000000000000007 #
edge $-1 -1 -1 $-1 $112 -0.035000000000000003 $140 0.035000000000000003 $109 $180 forward @7 unknown T 0.10000000000000001 0.10000000000000001 0 0.10000000000000001 0.10000000000000001 0.070000000000000007 #
point $-1 -1 -1 $-1 0.10000000000000001 0 0.070000000000000007 #
point $-1 -1 -1 $-1 0.10000000000000001 0.10000000000000001 0.070000000000000007 #
vertex $-1 -1 -1 $-1 $117 $181 #
ellipse-curve $-1 -1 -1 $-1 0 0 0.20000000000000001 0 0 1 0.050000000000000003 0 0 1 I I #
point $-1 -1 -1 $-1 0.050000000000000003 0 0 #
vertex $-1 -1 -1 $-1 $123 $182 #
ellipse-curve $-1 -1 -1 $-1 0 0 0.25 0 0 1 0.0050000000000000001 0 0 1 I I #
point $-1 -1 -1 $-1 0.0050000000000000001 0 0 #
rgb_color-st-attrib $-1 -1 $-1 $128 $95 2 1 2 1 1 1 1 1 1 1 1 1 1 1 0 1 1 1 0.50196078431372548 0.50196078431372548 0.50196078431372548 #
rh_material-rh_entity $-1 -1 4 5 @5 plain @5 color -4 0.50196078431372548 0.50196078431372548 0.50196078431372548 @5 phong @14 ambient factor -2 1 @14 diffuse factor -2 1 @15 specular factor -2 0.75 @8 exponent -2 30 @14 specular color -4 1 1 1 @4 none @5 plain @5 color -4 1 1 1 #
render-rbase-attrib $-1 -1 $183 $-1 $129 1 1 1 1 1 1 1 1 1 1 1 1 0 1 0 1 1 1 $184 $-1 0 1 1 0 0 0 1 0 0 0 1 0 0 0 1 no_rotate no_reflect no_shear #
plane-surface $-1 -1 -1 $-1 0.10000000000000001 0.050000000000000003 0.035000000000000003 -1 0 0 0 0 1 forward_v I I I I #
coedge $-1 -1 -1 $-1 $134 $132 $136 $170 reversed $96 $-1 #
edge $-1 -1 -1 $-1 $147 -0.035000000000000003 $172 0.035000000000000003 $146 $185 forward @7 unknown T 0 0.10000000000000001 0 0 0.10000000000000001 0.070000000000000007 #
vertex $-1 -1 -1 $-1 $170 $186 #
straight-curve $-1 -1 -1 $-1 0 0 0.035000000000000003 0 0 -1 I I #
edge $-1 -1 -1 $-1 $168 -0.050000000000000003 $172 0.050000000000000003 $166 $187 forward @7 unknown T 0 0 0 0 0.10000000000000001 0 #
straight-curve $-1 -1 -1 $-1 0.050000000000000003 0 0 -1 0 0 I I #
vertex $-1 -1 -1 $-1 $139 $188 #
straight-curve $-1 -1 -1 $-1 0.050000000000000003 0.10000000000000001 0 1 0 0 I I #
point $-1 -1 -1 $-1 0.10000000000000001 0.10000000000000001 0 #
point $-1 -1 -1 $-1 0.10000000000000001 0 0 #
straight-curve $-1 -1 -1 $-1 0 0.050000000000000003 0.070000000000000007 0 -1 0 I I #
point $-1 -1 -1 $-1 0 0.10000000000000001 0.070000000000000007 #
point $-1 -1 -1 $-1 0 0 0.070000000000000007 #
straight-curve $-1 -1 -1 $-1 0.10000000000000001 0 0.035000000000000003 0 0 -1 I I #
straight-curve $-1 -1 -1 $-1 0.10000000000000001 0.10000000000000001 0.035000000000000003 0 0 -1 I I #
point $-1 -1 -1 $-1 0.050000000000000003 0 0.20000000000000001 #
point $-1 -1 -1 $-1 0.0050000000000000001 0 0.25 #
rgb_color-st-attrib $-1 -1 $-1 $164 $129 2 1 2 1 1 1 1 1 1 1 1 1 1 1 0 1 1 1 0.50196078431372548 0.50196078431372548 0.50196078431372548 #
rh_material-rh_entity $-1 -1 4 5 @5 plain @5 color -4 0.50196078431372548 0.50196078431372548 0.50196078431372548 @5 phong @14 ambient factor -2 1 @14 diffuse factor -2 1 @15 specular factor -2 0.75 @8 exponent -2 30 @14 specular color -4 1 1 1 @4 none @5 plain @5 color -4 1 1 1 #
straight-curve $-1 -1 -1 $-1 0 0.10000000000000001 0.035000000000000003 0 0 -1 I I #
point $-1 -1 -1 $-1 0 0 0 #
straight-curve $-1 -1 -1 $-1 0 0.050000000000000003 0 0 1 0 I I #
point $-1 -1 -1 $-1 0 0.10000000000000001 0 #
End-of-ACIS-data 