3000 0 2 0           
15 RobotStudioIRC5 12 ACIS 31.0 NT 24 Thu Jan 27 18:39:59 2022 
1000 1e-08 1e-10 
T @77 NW9PZWGBU_JPFVQG6GDET4MYV6GV7N5BDDSVK6PCYDC4PE6D7C9MFG64QAP4FVPEUCRKNGQX2CVVQ 
body $2 -1 -1 $-1 0 $3 $-1 $4 T 0 0 0 0.059999999999999998 0.02 0.029999999999999999 #
body $5 -1 -1 $-1 0 $6 $-1 $7 T 0 0 0 0.029999999999999999 0.02 0.029999999999999999 #
render-rbase-attrib $-1 -1 $8 $-1 $0 1 1 1 1 1 1 1 1 1 1 1 1 0 1 0 1 1 1 $9 $-1 0 1 1 0 0 0 1 0 0 0 1 0 0 0 1 no_rotate no_reflect no_shear #
lump $-1 -1 -1 $-1 $-1 $10 $0 T 0 0 0 0.059999999999999998 0.02 0.029999999999999999 #
transform $-1 -1 1 0 0 0 1 0 0 0 1 0 0 0 1 no_rotate no_reflect no_shear #
render-rbase-attrib $-1 -1 $11 $-1 $1 1 1 1 1 1 1 1 1 1 1 1 1 0 1 0 1 1 1 $12 $-1 0 1 1 0 0 0 1 0 0 0 1 0.029999999999999999 0 0.029999999999999999 1 no_rotate no_reflect no_shear #
lump $-1 -1 -1 $-1 $-1 $13 $1 T 0 0 0 0.029999999999999999 0.02 0.029999999999999999 #
transform $-1 -1 1 0 0 0 1 0 0 0 1 0.029999999999999999 0 0.029999999999999999 1 no_rotate no_reflect no_shear #
rgb_color-st-attrib $-1 -1 $14 $2 $0 2 1 2 1 1 1 1 1 1 1 1 1 1 1 0 1 1 1 0.50196078431372548 0.50196078431372548 0.50196078431372548 #
rh_material-rh_entity $-1 -1 4 5 @5 plain @5 color -4 0.50196078431372548 0.50196078431372548 0.50196078431372548 @5 phong @14 ambient factor -2 1 @14 diffuse factor -2 1 @15 specular factor -2 0.75 @8 exponent -2 30 @14 specular color -4 1 1 1 @4 none @5 plain @5 color -4 1 1 1 #
shell $-1 -1 -1 $-1 $-1 $-1 $15 $-1 $3 T 0 0 0 0.059999999999999998 0.02 0.029999999999999999 #
rgb_color-st-attrib $-1 -1 $16 $5 $1 2 1 2 1 1 1 1 1 1 1 1 1 1 1 0 1 1 1 0.50196078431372548 0.50196078431372548 0.50196078431372548 #
rh_material-rh_entity $-1 -1 4 5 @5 plain @5 color -4 0.50196078431372548 0.50196078431372548 0.50196078431372548 @5 phong @14 ambient factor -2 1 @14 diffuse factor -2 1 @15 specular factor -2 0.75 @8 exponent -2 30 @14 specular color -4 1 1 1 @4 none @5 plain @5 color -4 1 1 1 #
shell $-1 -1 -1 $-1 $-1 $-1 $17 $-1 $6 T 0 0 0 0.029999999999999999 0.02 0.029999999999999999 #
vector_attrib-name_attrib-gen-attrib $-1 -1 $18 $8 $0 2 1 1 2 1 1 1 1 1 1 1 1 1 1 0 1 1 1 @18 abb_primitive_size 0.059999999999999998 0.02 0.029999999999999999 #
face $19 -1 -1 $-1 $20 $21 $10 $-1 $22 forward single T 0 0 0.029999999999999999 0.059999999999999998 0.02 0.029999999999999999 F #
vector_attrib-name_attrib-gen-attrib $-1 -1 $23 $11 $1 2 1 1 2 1 1 1 1 1 1 1 1 1 1 0 1 1 1 @18 abb_primitive_size 0.029999999999999999 0.02 0.029999999999999999 #
face $24 -1 -1 $-1 $25 $26 $13 $-1 $27 forward single T 0 0 0.029999999999999999 0.029999999999999999 0.02 0.029999999999999999 F #
integer_attrib-name_attrib-gen-attrib $-1 -1 $-1 $14 $0 2 1 1 1 1 1 1 1 1 1 1 1 1 1 0 1 1 1 @18 abb_primitive_type 1 #
render-rbase-attrib $-1 -1 $28 $-1 $15 1 1 1 1 1 1 1 1 1 1 1 1 0 1 0 1 1 1 $29 $-1 0 1 1 0 0 0 1 0 0 0 1 0 0 0 1 no_rotate no_reflect no_shear #
face $30 -1 -1 $-1 $31 $32 $10 $-1 $33 reversed single T 0 0 0 0.059999999999999998 0.02 0 F #
loop $-1 -1 -1 $-1 $-1 $34 $15 T 0 0 0.029999999999999999 0.059999999999999998 0.02 0.029999999999999999 unknown #
plane-surface $-1 -1 -1 $-1 0.029999999999999999 0.01 0.029999999999999999 0 0 1 1 0 0 forward_v I I I I #
integer_attrib-name_attrib-gen-attrib $-1 -1 $-1 $16 $1 2 1 1 1 1 1 1 1 1 1 1 1 1 1 0 1 1 1 @18 abb_primitive_type 1 #
render-rbase-attrib $-1 -1 $35 $-1 $17 1 1 1 1 1 1 1 1 1 1 1 1 0 1 0 1 1 1 $36 $-1 0 1 1 0 0 0 1 0 0 0 1 0.029999999999999999 0 0.029999999999999999 1 no_rotate no_reflect no_shear #
face $37 -1 -1 $-1 $38 $39 $13 $-1 $40 reversed single T 0 0 0 0.029999999999999999 0.02 0 F #
loop $-1 -1 -1 $-1 $-1 $41 $17 T 0 0 0.029999999999999999 0.029999999999999999 0.02 0.029999999999999999 unknown #
plane-surface $-1 -1 -1 $-1 0.014999999999999999 0.01 0.029999999999999999 0 0 1 1 0 0 forward_v I I I I #
rgb_color-st-attrib $-1 -1 $-1 $19 $15 2 1 2 1 1 1 1 1 1 1 1 1 1 1 0 1 1 1 0.50196078431372548 0.50196078431372548 0.50196078431372548 #
rh_material-rh_entity $-1 -1 4 5 @5 plain @5 color -4 0.50196078431372548 0.50196078431372548 0.50196078431372548 @5 phong @14 ambient factor -2 1 @14 diffuse factor -2 1 @15 specular factor -2 0.75 @8 exponent -2 30 @14 specular color -4 1 1 1 @4 none @5 plain @5 color -4 1 1 1 #
render-rbase-attrib $-1 -1 $42 $-1 $20 1 1 1 1 1 1 1 1 1 1 1 1 0 1 0 1 1 1 $43 $-1 0 1 1 0 0 0 1 0 0 0 1 0 0 0 1 no_rotate no_reflect no_shear #
face $44 -1 -1 $-1 $45 $46 $10 $-1 $47 reversed single T 0 0 0 0.059999999999999998 0 0.029999999999999999 F #
loop $-1 -1 -1 $-1 $-1 $48 $20 T 0 0 0 0.059999999999999998 0.02 0 unknown #
plane-surface $-1 -1 -1 $-1 0.029999999999999999 0.01 0 0 0 1 1 0 0 forward_v I I I I #
coedge $-1 -1 -1 $-1 $49 $50 $51 $52 forward $21 $-1 #
rgb_color-st-attrib $-1 -1 $-1 $24 $17 2 1 2 1 1 1 1 1 1 1 1 1 1 1 0 1 1 1 0.50196078431372548 0.50196078431372548 0.50196078431372548 #
rh_material-rh_entity $-1 -1 4 5 @5 plain @5 color -4 0.50196078431372548 0.50196078431372548 0.50196078431372548 @5 phong @14 ambient factor -2 1 @14 diffuse factor -2 1 @15 specular factor -2 0.75 @8 exponent -2 30 @14 specular color -4 1 1 1 @4 none @5 plain @5 color -4 1 1 1 #
render-rbase-attrib $-1 -1 $53 $-1 $25 1 1 1 1 1 1 1 1 1 1 1 1 0 1 0 1 1 1 $54 $-1 0 1 1 0 0 0 1 0 0 0 1 0.029999999999999999 0 0.029999999999999999 1 no_rotate no_reflect no_shear #
face $55 -1 -1 $-1 $56 $57 $13 $-1 $58 reversed single T 0 0 0 0.029999999999999999 0 0.029999999999999999 F #
loop $-1 -1 -1 $-1 $-1 $59 $25 T 0 0 0 0.029999999999999999 0.02 0 unknown #
plane-surface $-1 -1 -1 $-1 0.014999999999999999 0.01 0 0 0 1 1 0 0 forward_v I I I I #
coedge $-1 -1 -1 $-1 $60 $61 $62 $63 forward $26 $-1 #
rgb_color-st-attrib $-1 -1 $-1 $30 $20 2 1 2 1 1 1 1 1 1 1 1 1 1 1 0 1 1 1 0.50196078431372548 0.50196078431372548 0.50196078431372548 #
rh_material-rh_entity $-1 -1 4 5 @5 plain @5 color -4 0.50196078431372548 0.50196078431372548 0.50196078431372548 @5 phong @14 ambient factor -2 1 @14 diffuse factor -2 1 @15 specular factor -2 0.75 @8 exponent -2 30 @14 specular color -4 1 1 1 @4 none @5 plain @5 color -4 1 1 1 #
render-rbase-attrib $-1 -1 $64 $-1 $31 1 1 1 1 1 1 1 1 1 1 1 1 0 1 0 1 1 1 $65 $-1 0 1 1 0 0 0 1 0 0 0 1 0 0 0 1 no_rotate no_reflect no_shear #
face $66 -1 -1 $-1 $67 $68 $10 $-1 $69 reversed single T 0 0 0 0 0.02 0.029999999999999999 F #
loop $-1 -1 -1 $-1 $-1 $70 $31 T 0 0 0 0.059999999999999998 0 0.029999999999999999 unknown #
plane-surface $-1 -1 -1 $-1 0.029999999999999999 0 0.014999999999999999 0 1 0 0 0 1 forward_v I I I I #
coedge $-1 -1 -1 $-1 $71 $72 $73 $74 forward $32 $-1 #
coedge $-1 -1 -1 $-1 $75 $34 $76 $77 forward $21 $-1 #
coedge $-1 -1 -1 $-1 $34 $75 $78 $79 forward $21 $-1 #
coedge $-1 -1 -1 $-1 $80 $81 $34 $52 reversed $82 $-1 #
edge $-1 -1 -1 $-1 $83 -0.01 $84 0.01 $51 $85 forward @7 unknown T 0.059999999999999998 0 0.029999999999999999 0.059999999999999998 0.02 0.029999999999999999 #
rgb_color-st-attrib $-1 -1 $-1 $37 $25 2 1 2 1 1 1 1 1 1 1 1 1 1 1 0 1 1 1 0.50196078431372548 0.50196078431372548 0.50196078431372548 #
rh_material-rh_entity $-1 -1 4 5 @5 plain @5 color -4 0.50196078431372548 0.50196078431372548 0.50196078431372548 @5 phong @14 ambient factor -2 1 @14 diffuse factor -2 1 @15 specular factor -2 0.75 @8 exponent -2 30 @14 specular color -4 1 1 1 @4 none @5 plain @5 color -4 1 1 1 #
render-rbase-attrib $-1 -1 $86 $-1 $38 1 1 1 1 1 1 1 1 1 1 1 1 0 1 0 1 1 1 $87 $-1 0 1 1 0 0 0 1 0 0 0 1 0.029999999999999999 0 0.029999999999999999 1 no_rotate no_reflect no_shear #
face $88 -1 -1 $-1 $89 $90 $13 $-1 $91 reversed single T 0 0 0 0 0.02 0.029999999999999999 F #
loop $-1 -1 -1 $-1 $-1 $92 $38 T 0 0 0 0.029999999999999999 0 0.029999999999999999 unknown #
plane-surface $-1 -1 -1 $-1 0.014999999999999999 0 0.014999999999999999 0 1 0 0 0 1 forward_v I I I I #
coedge $-1 -1 -1 $-1 $93 $94 $95 $96 forward $39 $-1 #
coedge $-1 -1 -1 $-1 $97 $41 $98 $99 forward $26 $-1 #
coedge $-1 -1 -1 $-1 $41 $97 $100 $101 forward $26 $-1 #
coedge $-1 -1 -1 $-1 $102 $103 $41 $63 reversed $104 $-1 #
edge $-1 -1 -1 $-1 $105 -0.01 $106 0.01 $62 $107 forward @7 unknown T 0.029999999999999999 0 0.029999999999999999 0.029999999999999999 0.02 0.029999999999999999 #
rgb_color-st-attrib $-1 -1 $-1 $44 $31 2 1 2 1 1 1 1 1 1 1 1 1 1 1 0 1 1 1 0.50196078431372548 0.50196078431372548 0.50196078431372548 #
rh_material-rh_entity $-1 -1 4 5 @5 plain @5 color -4 0.50196078431372548 0.50196078431372548 0.50196078431372548 @5 phong @14 ambient factor -2 1 @14 diffuse factor -2 1 @15 specular factor -2 0.75 @8 exponent -2 30 @14 specular color -4 1 1 1 @4 none @5 plain @5 color -4 1 1 1 #
render-rbase-attrib $-1 -1 $108 $-1 $45 1 1 1 1 1 1 1 1 1 1 1 1 0 1 0 1 1 1 $109 $-1 0 1 1 0 0 0 1 0 0 0 1 0 0 0 1 no_rotate no_reflect no_shear #
face $110 -1 -1 $-1 $111 $112 $10 $-1 $113 reversed single T 0 0.02 0 0.059999999999999998 0.02 0.029999999999999999 F #
loop $-1 -1 -1 $-1 $-1 $114 $45 T 0 0 0 0 0.02 0.029999999999999999 unknown #
plane-surface $-1 -1 -1 $-1 0 0.01 0.014999999999999999 1 0 0 0 0 -1 forward_v I I I I #
coedge $-1 -1 -1 $-1 $115 $78 $116 $117 forward $46 $-1 #
coedge $-1 -1 -1 $-1 $118 $48 $115 $119 forward $32 $-1 #
coedge $-1 -1 -1 $-1 $48 $118 $120 $121 forward $32 $-1 #
coedge $-1 -1 -1 $-1 $81 $80 $48 $74 reversed $82 $-1 #
edge $-1 -1 -1 $-1 $122 -0.01 $123 0.01 $73 $124 forward @7 unknown T 0.059999999999999998 0 0 0.059999999999999998 0.02 0 #
coedge $-1 -1 -1 $-1 $50 $49 $125 $126 forward $21 $-1 #
coedge $-1 -1 -1 $-1 $127 $128 $49 $77 reversed $112 $-1 #
edge $-1 -1 -1 $-1 $84 -0.029999999999999999 $129 0.029999999999999999 $76 $130 forward @7 unknown T 0 0.02 0.029999999999999999 0.059999999999999998 0.02 0.029999999999999999 #
coedge $-1 -1 -1 $-1 $70 $131 $50 $79 reversed $46 $-1 #
edge $-1 -1 -1 $-1 $132 -0.029999999999999999 $83 0.029999999999999999 $78 $133 forward @7 unknown T 0 0 0.029999999999999999 0.059999999999999998 0 0.029999999999999999 #
coedge $-1 -1 -1 $-1 $73 $51 $131 $134 forward $82 $-1 #
coedge $-1 -1 -1 $-1 $51 $73 $127 $135 reversed $82 $-1 #
loop $-1 -1 -1 $-1 $-1 $80 $111 T 0.059999999999999998 0 0 0.059999999999999998 0.02 0.029999999999999999 unknown #
vertex $-1 -1 -1 $-1 $52 $136 #
vertex $-1 -1 -1 $-1 $52 $137 #
straight-curve $-1 -1 -1 $-1 0.059999999999999998 0.01 0.029999999999999999 0 1 0 I I #
rgb_color-st-attrib $-1 -1 $-1 $55 $38 2 1 2 1 1 1 1 1 1 1 1 1 1 1 0 1 1 1 0.50196078431372548 0.50196078431372548 0.50196078431372548 #
rh_material-rh_entity $-1 -1 4 5 @5 plain @5 color -4 0.50196078431372548 0.50196078431372548 0.50196078431372548 @5 phong @14 ambient factor -2 1 @14 diffuse factor -2 1 @15 specular factor -2 0.75 @8 exponent -2 30 @14 specular color -4 1 1 1 @4 none @5 plain @5 color -4 1 1 1 #
render-rbase-attrib $-1 -1 $138 $-1 $56 1 1 1 1 1 1 1 1 1 1 1 1 0 1 0 1 1 1 $139 $-1 0 1 1 0 0 0 1 0 0 0 1 0.029999999999999999 0 0.029999999999999999 1 no_rotate no_reflect no_shear #
face $140 -1 -1 $-1 $141 $142 $13 $-1 $143 reversed single T 0 0.02 0 0.029999999999999999 0.02 0.029999999999999999 F #
loop $-1 -1 -1 $-1 $-1 $144 $56 T 0 0 0 0 0.02 0.029999999999999999 unknown #
plane-surface $-1 -1 -1 $-1 0 0.01 0.014999999999999999 1 0 0 0 0 -1 forward_v I I I I #
coedge $-1 -1 -1 $-1 $145 $100 $146 $147 forward $57 $-1 #
coedge $-1 -1 -1 $-1 $148 $59 $145 $149 forward $39 $-1 #
coedge $-1 -1 -1 $-1 $59 $148 $150 $151 forward $39 $-1 #
coedge $-1 -1 -1 $-1 $103 $102 $59 $96 reversed $104 $-1 #
edge $-1 -1 -1 $-1 $152 -0.01 $153 0.01 $95 $154 forward @7 unknown T 0.029999999999999999 0 0 0.029999999999999999 0.02 0 #
coedge $-1 -1 -1 $-1 $61 $60 $155 $156 forward $26 $-1 #
coedge $-1 -1 -1 $-1 $157 $158 $60 $99 reversed $142 $-1 #
edge $-1 -1 -1 $-1 $106 -0.014999999999999999 $159 0.014999999999999999 $98 $160 forward @7 unknown T 0 0.02 0.029999999999999999 0.029999999999999999 0.02 0.029999999999999999 #
coedge $-1 -1 -1 $-1 $92 $161 $61 $101 reversed $57 $-1 #
edge $-1 -1 -1 $-1 $162 -0.014999999999999999 $105 0.014999999999999999 $100 $163 forward @7 unknown T 0 0 0.029999999999999999 0.029999999999999999 0 0.029999999999999999 #
coedge $-1 -1 -1 $-1 $95 $62 $161 $164 forward $104 $-1 #
coedge $-1 -1 -1 $-1 $62 $95 $157 $165 reversed $104 $-1 #
loop $-1 -1 -1 $-1 $-1 $102 $141 T 0.029999999999999999 0 0 0.029999999999999999 0.02 0.029999999999999999 unknown #
vertex $-1 -1 -1 $-1 $63 $166 #
vertex $-1 -1 -1 $-1 $63 $167 #
straight-curve $-1 -1 -1 $-1 0.029999999999999999 0.01 0.029999999999999999 0 1 0 I I #
rgb_color-st-attrib $-1 -1 $-1 $66 $45 2 1 2 1 1 1 1 1 1 1 1 1 1 1 0 1 1 1 0.50196078431372548 0.50196078431372548 0.50196078431372548 #
rh_material-rh_entity $-1 -1 4 5 @5 plain @5 color -4 0.50196078431372548 0.50196078431372548 0.50196078431372548 @5 phong @14 ambient factor -2 1 @14 diffuse factor -2 1 @15 specular factor -2 0.75 @8 exponent -2 30 @14 specular color -4 1 1 1 @4 none @5 plain @5 color -4 1 1 1 #
render-rbase-attrib $-1 -1 $168 $-1 $67 1 1 1 1 1 1 1 1 1 1 1 1 0 1 0 1 1 1 $169 $-1 0 1 1 0 0 0 1 0 0 0 1 0 0 0 1 no_rotate no_reflect no_shear #
face $170 -1 -1 $-1 $-1 $82 $10 $-1 $171 reversed single T 0.059999999999999998 0 0 0.059999999999999998 0.02 0.029999999999999999 F #
loop $-1 -1 -1 $-1 $-1 $127 $67 T 0 0.02 0 0.059999999999999998 0.02 0.029999999999999999 unknown #
plane-surface $-1 -1 -1 $-1 0.029999999999999999 0.02 0.014999999999999999 0 -1 0 0 0 -1 forward_v I I I I #
coedge $-1 -1 -1 $-1 $172 $125 $128 $173 forward $68 $-1 #
coedge $-1 -1 -1 $-1 $131 $70 $71 $119 reversed $46 $-1 #
coedge $-1 -1 -1 $-1 $125 $172 $70 $117 reversed $68 $-1 #
edge $-1 -1 -1 $-1 $132 -0.014999999999999999 $174 0.014999999999999999 $116 $175 forward @7 unknown T 0 0 0 0 0 0.029999999999999999 #
coedge $-1 -1 -1 $-1 $72 $71 $172 $176 forward $32 $-1 #
edge $-1 -1 -1 $-1 $123 -0.029999999999999999 $174 0.029999999999999999 $115 $177 forward @7 unknown T 0 0 0 0.059999999999999998 0 0 #
coedge $-1 -1 -1 $-1 $128 $127 $72 $121 reversed $112 $-1 #
edge $-1 -1 -1 $-1 $178 -0.029999999999999999 $122 0.029999999999999999 $120 $179 forward @7 unknown T 0 0.02 0 0.059999999999999998 0.02 0 #
vertex $-1 -1 -1 $-1 $74 $180 #
vertex $-1 -1 -1 $-1 $134 $181 #
straight-curve $-1 -1 -1 $-1 0.059999999999999998 0.01 0 0 -1 0 I I #
coedge $-1 -1 -1 $-1 $114 $116 $75 $126 reversed $68 $-1 #
edge $-1 -1 -1 $-1 $129 -0.01 $132 0.01 $125 $182 forward @7 unknown T 0 0 0.029999999999999999 0 0.02 0.029999999999999999 #
coedge $-1 -1 -1 $-1 $120 $76 $81 $135 forward $112 $-1 #
coedge $-1 -1 -1 $-1 $76 $120 $114 $173 reversed $112 $-1 #
vertex $-1 -1 -1 $-1 $77 $183 #
straight-curve $-1 -1 -1 $-1 0.029999999999999999 0.02 0.029999999999999999 -1 0 0 I I #
coedge $-1 -1 -1 $-1 $78 $115 $80 $134 reversed $46 $-1 #
vertex $-1 -1 -1 $-1 $126 $184 #
straight-curve $-1 -1 -1 $-1 0.029999999999999999 0 0.029999999999999999 1 0 0 I I #
edge $-1 -1 -1 $-1 $83 -0.014999999999999999 $123 0.014999999999999999 $80 $185 forward @7 unknown T 0.059999999999999998 0 0 0.059999999999999998 0 0.029999999999999999 #
edge $-1 -1 -1 $-1 $84 -0.014999999999999999 $122 0.014999999999999999 $81 $186 forward @7 unknown T 0.059999999999999998 0.02 0 0.059999999999999998 0.02 0.029999999999999999 #
point $-1 -1 -1 $-1 0.059999999999999998 0 0.029999999999999999 #
point $-1 -1 -1 $-1 0.059999999999999998 0.02 0.029999999999999999 #
rgb_color-st-attrib $-1 -1 $-1 $88 $56 2 1 2 1 1 1 1 1 1 1 1 1 1 1 0 1 1 1 0.50196078431372548 0.50196078431372548 0.50196078431372548 #
rh_material-rh_entity $-1 -1 4 5 @5 plain @5 color -4 0.50196078431372548 0.50196078431372548 0.50196078431372548 @5 phong @14 ambient factor -2 1 @14 diffuse factor -2 1 @15 specular factor -2 0.75 @8 exponent -2 30 @14 specular color -4 1 1 1 @4 none @5 plain @5 color -4 1 1 1 #
render-rbase-attrib $-1 -1 $187 $-1 $89 1 1 1 1 1 1 1 1 1 1 1 1 0 1 0 1 1 1 $188 $-1 0 1 1 0 0 0 1 0 0 0 1 0.029999999999999999 0 0.029999999999999999 1 no_rotate no_reflect no_shear #
face $189 -1 -1 $-1 $-1 $104 $13 $-1 $190 reversed single T 0.029999999999999999 0 0 0.029999999999999999 0.02 0.029999999999999999 F #
loop $-1 -1 -1 $-1 $-1 $157 $89 T 0 0.02 0 0.029999999999999999 0.02 0.029999999999999999 unknown #
plane-surface $-1 -1 -1 $-1 0.014999999999999999 0.02 0.014999999999999999 0 -1 0 0 0 -1 forward_v I I I I #
coedge $-1 -1 -1 $-1 $191 $155 $158 $192 forward $90 $-1 #
coedge $-1 -1 -1 $-1 $161 $92 $93 $149 reversed $57 $-1 #
coedge $-1 -1 -1 $-1 $155 $191 $92 $147 reversed $90 $-1 #
edge $-1 -1 -1 $-1 $162 -0.014999999999999999 $193 0.014999999999999999 $146 $194 forward @7 unknown T 0 0 0 0 0 0.029999999999999999 #
coedge $-1 -1 -1 $-1 $94 $93 $191 $195 forward $39 $-1 #
edge $-1 -1 -1 $-1 $153 -0.014999999999999999 $193 0.014999999999999999 $145 $196 forward @7 unknown T 0 0 0 0.029999999999999999 0 0 #
coedge $-1 -1 -1 $-1 $158 $157 $94 $151 reversed $142 $-1 #
edge $-1 -1 -1 $-1 $197 -0.014999999999999999 $152 0.014999999999999999 $150 $198 forward @7 unknown T 0 0.02 0 0.029999999999999999 0.02 0 #
vertex $-1 -1 -1 $-1 $96 $199 #
vertex $-1 -1 -1 $-1 $164 $200 #
straight-curve $-1 -1 -1 $-1 0.029999999999999999 0.01 0 0 -1 0 I I #
coedge $-1 -1 -1 $-1 $144 $146 $97 $156 reversed $90 $-1 #
edge $-1 -1 -1 $-1 $159 -0.01 $162 0.01 $155 $201 forward @7 unknown T 0 0 0.029999999999999999 0 0.02 0.029999999999999999 #
coedge $-1 -1 -1 $-1 $150 $98 $103 $165 forward $142 $-1 #
coedge $-1 -1 -1 $-1 $98 $150 $144 $192 reversed $142 $-1 #
vertex $-1 -1 -1 $-1 $99 $202 #
straight-curve $-1 -1 -1 $-1 0.014999999999999999 0.02 0.029999999999999999 -1 0 0 I I #
coedge $-1 -1 -1 $-1 $100 $145 $102 $164 reversed $57 $-1 #
vertex $-1 -1 -1 $-1 $156 $203 #
straight-curve $-1 -1 -1 $-1 0.014999999999999999 0 0.029999999999999999 1 0 0 I I #
edge $-1 -1 -1 $-1 $105 -0.014999999999999999 $153 0.014999999999999999 $102 $204 forward @7 unknown T 0.029999999999999999 0 0 0.029999999999999999 0 0.029999999999999999 #
edge $-1 -1 -1 $-1 $106 -0.014999999999999999 $152 0.014999999999999999 $103 $205 forward @7 unknown T 0.029999999999999999 0.02 0 0.029999999999999999 0.02 0.029999999999999999 #
point $-1 -1 -1 $-1 0.029999999999999999 0 0.029999999999999999 #
point $-1 -1 -1 $-1 0.029999999999999999 0.02 0.029999999999999999 #
rgb_color-st-attrib $-1 -1 $-1 $110 $67 2 1 2 1 1 1 1 1 1 1 1 1 1 1 0 1 1 1 0.50196078431372548 0.50196078431372548 0.50196078431372548 #
rh_material-rh_entity $-1 -1 4 5 @5 plain @5 color -4 0.50196078431372548 0.50196078431372548 0.50196078431372548 @5 phong @14 ambient factor -2 1 @14 diffuse factor -2 1 @15 specular factor -2 0.75 @8 exponent -2 30 @14 specular color -4 1 1 1 @4 none @5 plain @5 color -4 1 1 1 #
render-rbase-attrib $-1 -1 $206 $-1 $111 1 1 1 1 1 1 1 1 1 1 1 1 0 1 0 1 1 1 $207 $-1 0 1 1 0 0 0 1 0 0 0 1 0 0 0 1 no_rotate no_reflect no_shear #
plane-surface $-1 -1 -1 $-1 0.059999999999999998 0.01 0.014999999999999999 -1 0 0 0 0 1 forward_v I I I I #
coedge $-1 -1 -1 $-1 $116 $114 $118 $176 reversed $68 $-1 #
edge $-1 -1 -1 $-1 $129 -0.014999999999999999 $178 0.014999999999999999 $128 $208 forward @7 unknown T 0 0.02 0 0 0.02 0.029999999999999999 #
vertex $-1 -1 -1 $-1 $176 $209 #
straight-curve $-1 -1 -1 $-1 0 0 0.014999999999999999 0 0 -1 I I #
edge $-1 -1 -1 $-1 $174 -0.01 $178 0.01 $172 $210 forward @7 unknown T 0 0 0 0 0.02 0 #
straight-curve $-1 -1 -1 $-1 0.029999999999999999 0 0 -1 0 0 I I #
vertex $-1 -1 -1 $-1 $121 $211 #
straight-curve $-1 -1 -1 $-1 0.029999999999999999 0.02 0 1 0 0 I I #
point $-1 -1 -1 $-1 0.059999999999999998 0.02 0 #
point $-1 -1 -1 $-1 0.059999999999999998 0 0 #
straight-curve $-1 -1 -1 $-1 0 0.01 0.029999999999999999 0 -1 0 I I #
point $-1 -1 -1 $-1 0 0.02 0.029999999999999999 #
point $-1 -1 -1 $-1 0 0 0.029999999999999999 #
straight-curve $-1 -1 -1 $-1 0.059999999999999998 0 0.014999999999999999 0 0 -1 I I #
straight-curve $-1 -1 -1 $-1 0.059999999999999998 0.02 0.014999999999999999 0 0 -1 I I #
rgb_color-st-attrib $-1 -1 $-1 $140 $89 2 1 2 1 1 1 1 1 1 1 1 1 1 1 0 1 1 1 0.50196078431372548 0.50196078431372548 0.50196078431372548 #
rh_material-rh_entity $-1 -1 4 5 @5 plain @5 color -4 0.50196078431372548 0.50196078431372548 0.50196078431372548 @5 phong @14 ambient factor -2 1 @14 diffuse factor -2 1 @15 specular factor -2 0.75 @8 exponent -2 30 @14 specular color -4 1 1 1 @4 none @5 plain @5 color -4 1 1 1 #
render-rbase-attrib $-1 -1 $212 $-1 $141 1 1 1 1 1 1 1 1 1 1 1 1 0 1 0 1 1 1 $213 $-1 0 1 1 0 0 0 1 0 0 0 1 0.029999999999999999 0 0.029999999999999999 1 no_rotate no_reflect no_shear #
plane-surface $-1 -1 -1 $-1 0.029999999999999999 0.01 0.014999999999999999 -1 0 0 0 0 1 forward_v I I I I #
coedge $-1 -1 -1 $-1 $146 $144 $148 $195 reversed $90 $-1 #
edge $-1 -1 -1 $-1 $159 -0.014999999999999999 $197 0.014999999999999999 $158 $214 forward @7 unknown T 0 0.02 0 0 0.02 0.029999999999999999 #
vertex $-1 -1 -1 $-1 $195 $215 #
straight-curve $-1 -1 -1 $-1 0 0 0.014999999999999999 0 0 -1 I I #
edge $-1 -1 -1 $-1 $193 -0.01 $197 0.01 $191 $216 forward @7 unknown T 0 0 0 0 0.02 0 #
straight-curve $-1 -1 -1 $-1 0.014999999999999999 0 0 -1 0 0 I I #
vertex $-1 -1 -1 $-1 $151 $217 #
straight-curve $-1 -1 -1 $-1 0.014999999999999999 0.02 0 1 0 0 I I #
point $-1 -1 -1 $-1 0.029999999999999999 0.02 0 #
point $-1 -1 -1 $-1 0.029999999999999999 0 0 #
straight-curve $-1 -1 -1 $-1 0 0.01 0.029999999999999999 0 -1 0 I I #
point $-1 -1 -1 $-1 0 0.02 0.029999999999999999 #
point $-1 -1 -1 $-1 0 0 0.029999999999999999 #
straight-curve $-1 -1 -1 $-1 0.029999999999999999 0 0.014999999999999999 0 0 -1 I I #
straight-curve $-1 -1 -1 $-1 0.029999999999999999 0.02 0.014999999999999999 0 0 -1 I I #
rgb_color-st-attrib $-1 -1 $-1 $170 $111 2 1 2 1 1 1 1 1 1 1 1 1 1 1 0 1 1 1 0.50196078431372548 0.50196078431372548 0.50196078431372548 #
rh_material-rh_entity $-1 -1 4 5 @5 plain @5 color -4 0.50196078431372548 0.50196078431372548 0.50196078431372548 @5 phong @14 ambient factor -2 1 @14 diffuse factor -2 1 @15 specular factor -2 0.75 @8 exponent -2 30 @14 specular color -4 1 1 1 @4 none @5 plain @5 color -4 1 1 1 #
straight-curve $-1 -1 -1 $-1 0 0.02 0.014999999999999999 0 0 -1 I I #
point $-1 -1 -1 $-1 0 0 0 #
straight-curve $-1 -1 -1 $-1 0 0.01 0 0 1 0 I I #
point $-1 -1 -1 $-1 0 0.02 0 #
rgb_color-st-attrib $-1 -1 $-1 $189 $141 2 1 2 1 1 1 1 1 1 1 1 1 1 1 0 1 1 1 0.50196078431372548 0.50196078431372548 0.50196078431372548 #
rh_material-rh_entity $-1 -1 4 5 @5 plain @5 color -4 0.50196078431372548 0.50196078431372548 0.50196078431372548 @5 phong @14 ambient factor -2 1 @14 diffuse factor -2 1 @15 specular factor -2 0.75 @8 exponent -2 30 @14 specular color -4 1 1 1 @4 none @5 plain @5 color -4 1 1 1 #
straight-curve $-1 -1 -1 $-1 0 0.02 0.014999999999999999 0 0 -1 I I #
point $-1 -1 -1 $-1 0 0 0 #
straight-curve $-1 -1 -1 $-1 0 0.01 0 0 1 0 I I #
point $-1 -1 -1 $-1 0 0.02 0 #
End-of-ACIS-data 